<?xml version="1.0" encoding="UTF-8"?>
<svg version="1.1" xmlns="http://www.w3.org/2000/svg" width="500" height="500">
<path d="M0 0 C16.11446762 -0.13364743 32.02712451 1.53262176 47.51708984 6.03564453 C48.24879395 6.24705078 48.98049805 6.45845703 49.734375 6.67626953 C70.11805888 12.70678964 89.28798608 22.74166409 105.59912109 36.44189453 C107.63345617 38.18915442 107.63345617 38.18915442 110.51708984 40.03564453 C110.51708984 40.69564453 110.51708984 41.35564453 110.51708984 42.03564453 C111.09974609 42.29345703 111.68240234 42.55126953 112.28271484 42.81689453 C114.69738015 44.1339847 116.33449162 45.58652837 118.26708984 47.53564453 C118.88068359 48.14408203 119.49427734 48.75251953 120.12646484 49.37939453 C121.51708984 51.03564453 121.51708984 51.03564453 121.51708984 53.03564453 C122.17708984 53.03564453 122.83708984 53.03564453 123.51708984 53.03564453 C123.51708984 53.69564453 123.51708984 54.35564453 123.51708984 55.03564453 C124.17708984 55.03564453 124.83708984 55.03564453 125.51708984 55.03564453 C127.01000977 56.68115234 127.01000977 56.68115234 128.74755859 58.98876953 C129.38234131 59.82939941 130.01712402 60.6700293 130.67114258 61.53613281 C131.34218018 62.44347168 132.01321777 63.35081055 132.70458984 64.28564453 C133.72951538 65.66792236 133.72951538 65.66792236 134.77514648 67.078125 C147.30990123 84.15637185 157.89212078 104.39237717 161.28662109 125.55517578 C163.49393235 139.03604178 168.94411906 148.76295696 176.51708984 160.03564453 C177.37989334 161.34369491 178.24193182 162.6522504 179.10302734 163.96142578 C180.69822814 166.37325936 182.31185352 168.77150129 183.93505859 171.16455078 C187.52935256 176.50042437 190.91907402 181.96798961 194.31982422 187.4284668 C196.56524092 191.01769666 198.8413171 194.51548898 201.37255859 197.91064453 C203.51708984 201.03564453 203.51708984 201.03564453 203.51708984 204.03564453 C204.17708984 204.03564453 204.83708984 204.03564453 205.51708984 204.03564453 C206.33822162 205.42641754 207.14861479 206.82353346 207.95458984 208.22314453 C208.40705078 209.00044922 208.85951172 209.77775391 209.32568359 210.57861328 C210.56206303 213.12839252 211.19553946 215.22437549 211.51708984 218.03564453 C209.74086249 223.15535867 207.12932734 225.51097651 202.51708984 228.03564453 C198.33639231 229.96682591 194.08863509 231.72281898 189.82958984 233.47314453 C187.57507649 234.40787951 185.32116398 235.34406504 183.06787109 236.28173828 C182.07440674 236.69093506 181.08094238 237.10013184 180.05737305 237.52172852 C175.17282578 239.61048637 170.34653107 241.82298742 165.51708984 244.03564453 C165.51931046 244.65379532 165.52153107 245.27194611 165.52381897 245.90882874 C165.54615745 252.4153688 165.56111394 258.92189776 165.57202148 265.4284668 C165.57701168 267.84806766 165.5838062 270.26766557 165.5925293 272.68725586 C165.74528135 316.18565031 165.74528135 316.18565031 155.10302734 329.45361328 C153.51708984 331.03564453 153.51708984 331.03564453 151.51708984 331.03564453 C151.51708984 331.69564453 151.51708984 332.35564453 151.51708984 333.03564453 C149.46894012 334.3560409 147.40802171 335.63939202 145.32958984 336.91064453 C144.77078125 337.27544922 144.21197266 337.64025391 143.63623047 338.01611328 C131.990653 345.01618717 116.78228159 343.28152132 103.70458984 343.16064453 C94.20677734 343.09876953 94.20677734 343.09876953 84.51708984 343.03564453 C84.51708984 362.50564453 84.51708984 381.97564453 84.51708984 402.03564453 C80.95800224 403.22200707 78.13303585 403.1615502 74.37425232 403.16262817 C73.6421443 403.16418816 72.91003629 403.16574816 72.15574318 403.16735542 C69.69601225 403.1713526 67.23634275 403.16818073 64.77661133 403.16503906 C63.01588912 403.16639366 61.25516719 403.16817392 59.4944458 403.17034912 C54.7074447 403.17491617 49.92046511 403.17313696 45.13346362 403.16997004 C40.13089104 403.16744309 35.12832033 403.16978487 30.12574768 403.1713562 C21.72502308 403.17317674 13.32430726 403.17077442 4.92358398 403.16601562 C-4.79953927 403.16057146 -14.52264157 403.16233725 -24.24576432 403.16784203 C-32.58379311 403.17237432 -40.92181557 403.17302319 -49.2598452 403.17040336 C-54.24425884 403.16884146 -59.22866262 403.16864451 -64.21307564 403.17193985 C-68.8972993 403.1748203 -73.58149583 403.17283965 -78.26571655 403.16704559 C-79.98870231 403.16571901 -81.71169035 403.1661104 -83.43467522 403.16830826 C-85.77883347 403.17102368 -88.12290369 403.16763381 -90.46705627 403.16262817 C-91.78132379 403.16225115 -93.0955913 403.16187412 -94.4496851 403.16148567 C-97.48291016 403.03564453 -97.48291016 403.03564453 -99.48291016 402.03564453 C-99.4883786 400.45735619 -99.4883786 400.45735619 -99.49395752 398.84718323 C-99.5311344 388.86003707 -99.58915072 378.87319281 -99.6668129 368.8862772 C-99.70607671 363.75368154 -99.7383675 358.62125205 -99.75390625 353.48852539 C-99.76921326 348.52159334 -99.80390233 343.55511877 -99.85121918 338.58839226 C-99.86588978 336.70733589 -99.87394279 334.82621416 -99.87479401 332.94510078 C-99.88898444 317.28860614 -101.59632461 302.33184743 -108.48291016 288.03564453 C-109.01400391 286.92189453 -109.54509766 285.80814453 -110.09228516 284.66064453 C-114.42821094 275.92523329 -119.75978924 268.27399403 -125.74853516 260.59423828 C-132.48291016 251.92408073 -132.48291016 251.92408073 -132.48291016 249.03564453 C-133.14291016 249.03564453 -133.80291016 249.03564453 -134.48291016 249.03564453 C-144.93893317 230.26842374 -153.33375212 212.16523185 -157.48291016 191.03564453 C-157.70978516 189.92962891 -157.93666016 188.82361328 -158.17041016 187.68408203 C-162.85910063 159.87754267 -159.83213514 130.21345812 -149.48291016 104.03564453 C-149.21075684 103.34535156 -148.93860352 102.65505859 -148.65820312 101.94384766 C-142.81127704 87.38633445 -135.35337194 74.28001485 -125.48291016 62.03564453 C-125.03431641 61.47876953 -124.58572266 60.92189453 -124.12353516 60.34814453 C-106.81429563 39.04446511 -85.12010996 22.27406194 -59.48291016 12.03564453 C-58.83435059 11.76606934 -58.18579102 11.49649414 -57.51757812 11.21875 C-39.39802268 3.77303201 -19.52912961 0.28035919 0 0 Z M-31.48291016 46.03564453 C-32.28970215 46.31472656 -33.09649414 46.59380859 -33.92773438 46.88134766 C-49.11503682 52.29123191 -64.21377443 59.36900817 -76.48291016 70.03564453 C-76.48291016 70.69564453 -76.48291016 71.35564453 -76.48291016 72.03564453 C-77.14291016 72.03564453 -77.80291016 72.03564453 -78.48291016 72.03564453 C-78.48291016 72.69564453 -78.48291016 73.35564453 -78.48291016 74.03564453 C-79.03978516 74.26251953 -79.59666016 74.48939453 -80.17041016 74.72314453 C-83.14450603 76.41114489 -85.20299881 78.5024097 -87.48291016 81.03564453 C-87.48291016 81.69564453 -87.48291016 82.35564453 -87.48291016 83.03564453 C-88.14291016 83.03564453 -88.80291016 83.03564453 -89.48291016 83.03564453 C-103.05330279 97.79158549 -110.69210461 116.90962107 -115.48291016 136.03564453 C-115.67941162 136.79756104 -115.87591309 137.55947754 -116.07836914 138.34448242 C-117.79559248 145.77153065 -117.82819765 153.12737464 -117.79541016 160.72314453 C-117.79358734 161.38927765 -117.79176453 162.05541077 -117.78988647 162.74172974 C-117.74460707 172.55497195 -117.32455831 181.59403939 -114.48291016 191.03564453 C-114.14259766 192.24220703 -113.80228516 193.44876953 -113.45166016 194.69189453 C-107.79676447 213.18493177 -97.67249489 228.30037741 -86.29541016 243.72314453 C-65.68871962 271.94169422 -57.94293904 302.10133328 -57.79541016 336.66064453 C-57.7662752 339.85826611 -57.73185384 343.05574855 -57.69291687 346.25326538 C-57.67053663 348.22083108 -57.65465239 350.18848417 -57.64607239 352.15615845 C-57.63903793 353.03242889 -57.63200348 353.90869934 -57.62475586 354.81152344 C-57.6212764 355.58170807 -57.61779694 356.3518927 -57.61421204 357.14541626 C-57.59831366 359.12496906 -57.59831366 359.12496906 -56.48291016 361.03564453 C-23.81291016 361.03564453 8.85708984 361.03564453 42.51708984 361.03564453 C42.51708984 341.23564453 42.51708984 321.43564453 42.51708984 301.03564453 C68.91708984 301.03564453 95.31708984 301.03564453 122.51708984 301.03564453 C122.54287109 295.09048828 122.56865234 289.14533203 122.59521484 283.02001953 C122.62037874 279.25565333 122.646708 275.49136784 122.67724609 271.72705078 C122.72561579 265.75097332 122.76964711 259.77508265 122.78808594 253.79882812 C122.80322018 248.98107031 122.83760796 244.16380077 122.88539886 239.34626007 C122.9002461 237.50749198 122.90813277 235.66865419 122.90897369 233.82982635 C122.9113351 231.25564907 122.93834658 228.68283032 122.97119141 226.10888672 C122.96364586 224.96629143 122.96364586 224.96629143 122.95594788 223.8006134 C123.02376175 220.36979101 123.24017464 218.40362488 125.33001709 215.62652588 C128.35834686 213.42371239 131.62937918 212.28409474 135.14208984 211.09814453 C141.52224897 208.83632583 147.55743556 206.27334133 153.51708984 203.03564453 C152.03417582 198.7534329 149.84229972 195.45627274 147.20458984 191.78564453 C144.59940614 188.15873343 142.24316843 184.60967792 140.13037109 180.67626953 C138.39987118 177.48718144 136.52387976 174.57331713 134.36083984 171.66064453 C125.42186766 159.4492875 122.21425796 148.55853833 119.95263672 133.71240234 C116.03249825 109.62025091 99.56633725 85.76476183 81.51708984 70.03564453 C80.85708984 70.03564453 80.19708984 70.03564453 79.51708984 70.03564453 C79.51708984 69.37564453 79.51708984 68.71564453 79.51708984 68.03564453 C77.25410531 66.39896903 75.00441872 64.88998942 72.64208984 63.41064453 C71.99111328 62.99041016 71.34013672 62.57017578 70.66943359 62.13720703 C67.35461482 59.82437927 67.35461482 59.82437927 63.51708984 59.03564453 C63.51708984 58.37564453 63.51708984 57.71564453 63.51708984 57.03564453 C43.4758759 47.65605616 25.83619533 41.59228732 3.45458984 41.66064453 C2.35735092 41.66245728 2.35735092 41.66245728 1.23794556 41.66430664 C-10.08002432 41.71503421 -20.71866794 42.298026 -31.48291016 46.03564453 Z " fill="#FCFCFC" transform="translate(188.48291015625,41.96435546875)"/>
<path d="M0 0 C3.98110149 1.81070006 5.32070628 4.97739209 7.36328125 8.72265625 C8.00958496 9.86806885 8.00958496 9.86806885 8.66894531 11.03662109 C9.98784591 13.39847519 11.27528016 15.77461643 12.55078125 18.16015625 C12.92702637 18.86285645 13.30327148 19.56555664 13.69091797 20.28955078 C24.41500434 40.55373761 31.42117663 61.62783595 35.55078125 84.16015625 C35.82003418 85.44744629 35.82003418 85.44744629 36.09472656 86.76074219 C38.06458264 97.32184891 37.92294375 107.95773324 37.92138672 118.66699219 C37.92572673 121.9933728 37.96204607 125.31838708 38 128.64453125 C38.10164882 147.75424406 35.5220185 166.01132326 30.11328125 184.34765625 C29.81180176 185.39518066 29.51032227 186.44270508 29.19970703 187.52197266 C27.10535363 194.65123627 24.73488139 201.43816708 21.55078125 208.16015625 C21.19886719 208.97871094 20.84695313 209.79726563 20.484375 210.640625 C17.78023988 216.86861564 14.68437315 222.89031576 11.55078125 228.91015625 C11.13546143 229.71461182 10.7201416 230.51906738 10.29223633 231.34790039 C7.70900996 236.25679251 4.87590969 240.7187347 1.55078125 245.16015625 C-2.77062898 244.24470814 -6.08300726 242.07756219 -9.76171875 239.72265625 C-10.45652344 239.28324707 -11.15132813 238.84383789 -11.8671875 238.39111328 C-19.14087093 233.76792596 -26.30702332 228.98319052 -33.44921875 224.16015625 C-33.09451197 219.31249688 -31.64674179 216.78640591 -28.80419922 213.06201172 C-26.40303223 209.69172507 -24.74644635 205.96720889 -23.01171875 202.22265625 C-22.62411377 201.39362793 -22.23650879 200.56459961 -21.8371582 199.71044922 C-18.2841734 192.00015528 -15.22192308 184.18058627 -12.44921875 176.16015625 C-12.07023437 175.09925781 -11.69125 174.03835938 -11.30078125 172.9453125 C2.63279844 131.40648281 -3.51810194 82.1366144 -22.38085938 43.17626953 C-24.72002626 38.76200076 -27.48921815 34.57532425 -30.33691406 30.47412109 C-32.20603194 27.69202762 -33.4431093 25.78157508 -33.4765625 22.37890625 C-32.22134432 19.6680168 -31.09090533 18.81681316 -28.51171875 17.34765625 C-27.80144531 16.92871094 -27.09117187 16.50976562 -26.359375 16.078125 C-24.44921875 15.16015625 -24.44921875 15.16015625 -22.44921875 15.16015625 C-22.44921875 14.50015625 -22.44921875 13.84015625 -22.44921875 13.16015625 C-21.04394531 12.06274414 -21.04394531 12.06274414 -19.08984375 10.8828125 C-18.38601563 10.45162109 -17.6821875 10.02042969 -16.95703125 9.57617188 C-15.83941406 8.90618164 -15.83941406 8.90618164 -14.69921875 8.22265625 C-13.24510515 7.34016858 -11.7919509 6.45609786 -10.33984375 5.5703125 C-9.65341797 5.15668457 -8.96699219 4.74305664 -8.25976562 4.31689453 C-6.31500256 3.13269888 -6.31500256 3.13269888 -4.24609375 1.28125 C-2.44921875 0.16015625 -2.44921875 0.16015625 0 0 Z " fill="#FBFBFB" transform="translate(436.44921875,120.83984375)"/>
<path d="M0 0 C0.66 0 1.32 0 2 0 C2 1.32 2 2.64 2 4 C3.32 4.66 4.64 5.32 6 6 C5.34 6 4.68 6 4 6 C4 6.99 4 7.98 4 9 C4.66 9 5.32 9 6 9 C6 9.99 6 10.98 6 12 C6.66 12 7.32 12 8 12 C12.19621217 45.56969733 10 72.97580531 10 111 C69.07 111 128.14 111 189 111 C189 90.87 189 70.74 189 50 C193.40755374 49.37034947 197.05222434 48.87545095 201.38452148 48.88647461 C202.38503036 48.88655014 203.38553925 48.88662567 204.41636658 48.88670349 C205.47392654 48.89186478 206.53148651 48.89702606 207.62109375 48.90234375 C208.72099136 48.9037587 209.82088898 48.90517365 210.95411682 48.90663147 C214.44860617 48.91220497 217.94303019 48.92475261 221.4375 48.9375 C223.8144522 48.94251842 226.1914054 48.94708073 228.56835938 48.95117188 C234.37892834 48.96216572 240.1894595 48.97887738 246 49 C240.54068913 54.45931087 228.33169875 53.1719546 220.98046875 53.1953125 C217.38229626 53.19266479 213.7857567 53.1582586 210.1875 53.125 C203.855625 53.08375 197.52375 53.0425 191 53 C191 72.47 191 91.94 191 112 C187.44091239 113.18636254 184.61594601 113.12590566 180.85716248 113.12698364 C180.12505446 113.12854363 179.39294644 113.13010362 178.63865334 113.13171089 C176.17892241 113.13570807 173.7192529 113.1325362 171.25952148 113.12939453 C169.49879927 113.13074913 167.73807735 113.13252939 165.97735596 113.13470459 C161.19035486 113.13927164 156.40337526 113.13749243 151.61637378 113.1343255 C146.6138012 113.13179856 141.61123049 113.13414034 136.60865784 113.13571167 C128.20793323 113.13753221 119.80721741 113.13512989 111.40649414 113.13037109 C101.68337088 113.12492693 91.96026859 113.12669272 82.23714584 113.1321975 C73.89911705 113.13672979 65.56109458 113.13737866 57.22306496 113.13475883 C52.23865131 113.13319693 47.25424754 113.13299997 42.26983452 113.13629532 C37.58561085 113.13917577 32.90141432 113.13719512 28.2171936 113.13140106 C26.49420784 113.13007448 24.77121981 113.13046587 23.04823494 113.13266373 C20.70407668 113.13537915 18.36000647 113.13198928 16.01585388 113.12698364 C14.70158637 113.12660662 13.38731886 113.12622959 12.03322506 113.12584114 C9 113 9 113 7 112 C6.99453156 110.42171165 6.99453156 110.42171165 6.98895264 108.8115387 C6.95177576 98.82439254 6.89375943 88.83754828 6.81609726 78.85063267 C6.77683345 73.71803701 6.74454266 68.58560752 6.72900391 63.45288086 C6.7136969 58.48594881 6.67900783 53.51947424 6.63169098 48.55274773 C6.61702037 46.67169136 6.60896737 44.79056963 6.60811615 42.90945625 C6.59637549 29.95582935 5.80550996 17.36691522 0.86956787 5.21754456 C0 3 0 3 0 0 Z " fill="#9E959F" transform="translate(82,332)"/>
<path d="M0 0 C0.33 0 0.66 0 1 0 C4.34681957 20.08091739 3.58461897 40.64632949 4 61 C36.67 61 69.34 61 103 61 C103 61.33 103 61.66 103 62 C82.19100379 64.27772725 61.48987863 64.2451351 40.58911133 64.1373291 C36.10955749 64.11650068 31.6299794 64.1076581 27.15039062 64.09765625 C18.43352945 64.0765027 9.71678279 64.04258189 1 64 C1.00222061 63.44956024 1.00444122 62.89912048 1.00672913 62.33200073 C1.02889861 56.58917898 1.04395524 50.84636945 1.05493164 45.10351562 C1.05995204 42.96190904 1.06676969 40.82030586 1.07543945 38.67871094 C1.08760549 35.59569454 1.09325133 32.51272357 1.09765625 29.4296875 C1.10281754 28.47633514 1.10797882 27.52298279 1.11329651 26.54074097 C1.11368605 21.89667435 0.8927912 17.57555492 0 13 C-0.06522873 10.70916711 -0.0858841 8.41664206 -0.0625 6.125 C-0.05347656 4.97257812 -0.04445313 3.82015625 -0.03515625 2.6328125 C-0.02355469 1.76398438 -0.01195313 0.89515625 0 0 Z " fill="#AEA8AC" transform="translate(128,342)"/>
<path d="M0 0 C1.98 0 3.96 0 6 0 C3 2 3 2 1 3 C1.00222061 3.61815079 1.00444122 4.23630157 1.00672913 4.8731842 C1.02906761 11.37972427 1.0440241 17.88625322 1.05493164 24.39282227 C1.05992184 26.81242313 1.06671635 29.23202104 1.07543945 31.65161133 C1.22819151 75.15000578 1.22819151 75.15000578 -9.4140625 88.41796875 C-11 90 -11 90 -13 90 C-13.495 90.99 -13.495 90.99 -14 92 C-14 90.68 -14 89.36 -14 88 C-13.01 88 -12.02 88 -11 88 C-11 86.35 -11 84.7 -11 83 C-10.34 83 -9.68 83 -9 83 C-8.67 82.01 -8.34 81.02 -8 80 C-7.34 80 -6.68 80 -6 80 C-5.855625 79.071875 -5.71125 78.14375 -5.5625 77.1875 C-5 74 -5 74 -4 71 C-3.86868848 68.14993058 -3.79002894 65.32021191 -3.75390625 62.46875 C-3.72229746 60.70181766 -3.69038421 58.93489076 -3.65820312 57.16796875 C-3.64281494 56.24161621 -3.62742676 55.31526367 -3.61157227 54.36083984 C-3.3747115 40.55221067 -3.04612871 26.77386759 -2 13 C-1.87540405 11.34000977 -1.87540405 11.34000977 -1.74829102 9.64648438 C-1.14352881 2.28705763 -1.14352881 2.28705763 0 0 Z " fill="#CAC6CB" transform="translate(353,283)"/>
<path d="M0 0 C0.66 0 1.32 0 2 0 C2 1.32 2 2.64 2 4 C3.32 4.66 4.64 5.32 6 6 C5.34 6 4.68 6 4 6 C4 6.99 4 7.98 4 9 C4.66 9 5.32 9 6 9 C6 9.99 6 10.98 6 12 C6.66 12 7.32 12 8 12 C8.33333333 14.66666667 8.66666667 17.33333333 9 20 C9.16918442 21.19443726 9.33836884 22.38887451 9.51268005 23.61950684 C10.05325674 27.9673724 10.13432046 32.24239096 10.11352539 36.61914062 C10.11367142 37.43960876 10.11381744 38.2600769 10.1139679 39.10540771 C10.11327706 41.7890497 10.10552389 44.4726203 10.09765625 47.15625 C10.09578912 49.02811648 10.09436661 50.89998344 10.09336853 52.77185059 C10.08956659 57.67742279 10.07975632 62.58296497 10.06866455 67.48852539 C10.0584003 72.5027628 10.0538602 77.5170051 10.04882812 82.53125 C10.0381318 92.35417979 10.02108352 102.17708739 10 112 C9.01 112 8.02 112 7 112 C6.99453156 110.42171165 6.99453156 110.42171165 6.98895264 108.8115387 C6.95177576 98.82439254 6.89375943 88.83754828 6.81609726 78.85063267 C6.77683345 73.71803701 6.74454266 68.58560752 6.72900391 63.45288086 C6.7136969 58.48594881 6.67900783 53.51947424 6.63169098 48.55274773 C6.61702037 46.67169136 6.60896737 44.79056963 6.60811615 42.90945625 C6.59637549 29.95582935 5.80550996 17.36691522 0.86956787 5.21754456 C0 3 0 3 0 0 Z " fill="#B6AEB9" transform="translate(82,332)"/>
<path d="M0 0 C-0.99 0.66 -1.98 1.32 -3 2 C-3.99 3.485 -3.99 3.485 -5 5 C-7.09375 5.73046875 -7.09375 5.73046875 -9.5 6.1875 C-10.2940625 6.34605469 -11.088125 6.50460937 -11.90625 6.66796875 C-14 7 -14 7 -16 7 C-16.33 35.05 -16.66 63.1 -17 92 C-17.33 92 -17.66 92 -18 92 C-18 63.62 -18 35.24 -18 6 C-3 -1.5 -3 -1.5 0 0 Z " fill="#EEE9EB" transform="translate(331,251)"/>
<path d="M0 0 C2.31 0 4.62 0 7 0 C6.67 0.66 6.34 1.32 6 2 C5.01 2.33 4.02 2.66 3 3 C2.98786972 4.00811234 2.98786972 4.00811234 2.97549438 5.03659058 C2.88964716 12.011733 2.79015297 18.98658469 2.68261719 25.96142578 C2.64425918 28.56684499 2.60941855 31.1723184 2.578125 33.77783203 C2.53262249 37.51614803 2.47460374 41.25408865 2.4140625 44.9921875 C2.40251129 46.16304901 2.39096008 47.33391052 2.37905884 48.54025269 C2.35918915 49.62122223 2.33931946 50.70219177 2.31884766 51.81591797 C2.30552399 52.77078094 2.29220032 53.72564392 2.2784729 54.70944214 C2 57 2 57 0 59 C0 39.53 0 20.06 0 0 Z " fill="#EFECEE" transform="translate(232,344)"/>
<path d="M0 0 C1.32 0 2.64 0 4 0 C2.3770867 3.58749256 0.18900958 6.57327605 -2.125 9.75 C-9.75850443 20.54562346 -15.34064279 32.28854864 -19 45 C-19.33 45 -19.66 45 -20 45 C-19.88590318 42.89521396 -19.75834639 40.79115423 -19.625 38.6875 C-19.55539063 37.51574219 -19.48578125 36.34398437 -19.4140625 35.13671875 C-19 32 -19 32 -17 29 C-16.34 29 -15.68 29 -15 29 C-15 27.02 -15 25.04 -15 23 C-14.34 23 -13.68 23 -13 23 C-13 22.34 -13 21.68 -13 21 C-12.34 21 -11.68 21 -11 21 C-11.05800781 20.25878906 -11.11601563 19.51757812 -11.17578125 18.75390625 C-10.96912092 15.51622768 -10.21405537 14.4176882 -8.1875 11.9375 C-7.66542969 11.28652344 -7.14335938 10.63554687 -6.60546875 9.96484375 C-6.07566406 9.31644531 -5.54585937 8.66804687 -5 8 C-3.00276452 5.41223576 -1.37869722 2.9695017 0 0 Z " fill="#CCC6CA" transform="translate(95,125)"/>
<path d="M0 0 C1.60279192 0.00015914 3.20558896 0.00585476 4.80834961 0.01586914 C5.65038437 0.01728409 6.49241913 0.01869904 7.35997009 0.02015686 C10.06024671 0.02577276 12.76044163 0.03832791 15.46069336 0.05102539 C17.28686404 0.05603834 19.11303602 0.06060161 20.93920898 0.06469727 C25.42556878 0.07574735 29.9118672 0.0930226 34.39819336 0.11352539 C34.89319336 1.59852539 34.89319336 1.59852539 35.39819336 3.11352539 C34.35179687 3.09257813 33.30540039 3.07163086 32.22729492 3.05004883 C4.54188075 2.31756278 4.54188075 2.31756278 -22.60180664 7.11352539 C-22.27180664 6.45352539 -21.94180664 5.79352539 -21.60180664 5.11352539 C-20.94180664 5.11352539 -20.28180664 5.11352539 -19.60180664 5.11352539 C-19.60180664 4.45352539 -19.60180664 3.79352539 -19.60180664 3.11352539 C-17.99499023 2.91436523 -17.99499023 2.91436523 -16.35571289 2.71118164 C-14.95854895 2.5330198 -13.56141505 2.3546222 -12.16430664 2.17602539 C-11.45725586 2.08901367 -10.75020508 2.00200195 -10.02172852 1.91235352 C-6.30909965 1.4327316 -3.60273071 0.11355452 0 0 Z " fill="#9C989C" transform="translate(177.601806640625,81.886474609375)"/>
<path d="M0 0 C0 0.33 0 0.66 0 1 C-1.07483643 1.01981934 -2.14967285 1.03963867 -3.25708008 1.06005859 C-7.24364714 1.13611258 -11.2298491 1.22483009 -15.21606445 1.31738281 C-16.94157708 1.35567345 -18.66716956 1.39052621 -20.39282227 1.421875 C-22.87284895 1.46752404 -25.35232591 1.52551781 -27.83203125 1.5859375 C-28.98998955 1.60326431 -28.98998955 1.60326431 -30.17134094 1.62094116 C-33.95246674 1.72521273 -35.78018835 1.8534589 -39 4 C-45.96607822 5.29001449 -52.93630142 5.0969105 -60 5 C-56.49660862 2.66440575 -53.31398356 2.1205338 -49.25 1.4375 C-48.4957373 1.30819092 -47.74147461 1.17888184 -46.96435547 1.0456543 C-31.30372347 -1.51744181 -15.76795789 -1.28905933 0 0 Z " fill="#9F99A2" transform="translate(211,43)"/>
<path d="M0 0 C0.33 0 0.66 0 1 0 C1.33 1.65 1.66 3.3 2 5 C2.33 5 2.66 5 3 5 C3.79017142 16.33049374 4.12956147 27.64187634 4.1875 39 C4.20039063 40.21518311 4.21328125 41.43036621 4.2265625 42.68237305 C4.23458652 50.0108146 3.61042823 56.84659643 2 64 C1.1015724 60.71959409 1.04208311 58.33027453 1.4375 54.9375 C2.92577014 38.78193598 1.91762954 22.71753943 -0.32470703 6.67724609 C-0.58611259 4.78950353 -0.79795017 2.89501471 -1 1 C-0.67 0.67 -0.34 0.34 0 0 Z " fill="#837D83" transform="translate(430,205)"/>
<path d="M0 0 C0.66 0.33 1.32 0.66 2 1 C2.26607755 31.93458521 2.26607755 31.93458521 -2 41 C-2.39764263 42.98821313 -2.75455166 44.98732362 -3 47 C-3.66 46.67 -4.32 46.34 -5 46 C-4.70946625 44.22898044 -4.4174913 42.45819731 -4.125 40.6875 C-3.96257812 39.70136719 -3.80015625 38.71523438 -3.6328125 37.69921875 C-3.28175671 35.64705926 -2.91834263 33.5965094 -2.50537109 31.5559082 C-1.13384396 24.62401788 -0.59225182 17.86865793 -0.375 10.8125 C-0.31699219 9.24145508 -0.31699219 9.24145508 -0.2578125 7.63867188 C-0.16480563 5.09260887 -0.07896716 2.54653037 0 0 Z " fill="#F1ECF1" transform="translate(434,235)"/>
<path d="M0 0 C1.12793443 3.33081308 0.87365459 5.21699392 -0.3125 8.5 C-0.57675781 9.2528125 -0.84101562 10.005625 -1.11328125 10.78125 C-1.96902773 12.9225011 -2.93588816 14.9554183 -4 17 C-4.66 17 -5.32 17 -6 17 C-5.938125 18.11375 -5.938125 18.11375 -5.875 19.25 C-6.00889651 22.19572313 -6.51364451 23.49666444 -8 26 C-8.495 26.886875 -8.99 27.77375 -9.5 28.6875 C-11 31 -11 31 -13 32 C-11.61936998 25.78358815 -9.57585917 20.15548362 -7.0625 14.3125 C-6.71509766 13.48427734 -6.36769531 12.65605469 -6.00976562 11.80273438 C-4.25619451 7.67804451 -2.45025628 3.7713976 0 0 Z " fill="#C8C1C9" transform="translate(49,125)"/>
<path d="M0 0 C0.33 0 0.66 0 1 0 C1.01981934 0.83023682 1.03963867 1.66047363 1.06005859 2.51586914 C1.440591 23.84919428 1.440591 23.84919428 4 45 C3.34 44.34 2.68 43.68 2 43 C2 41.68 2 40.36 2 39 C1.34 39 0.68 39 0 39 C-1.12992307 32.67781138 -1.14861276 26.47336485 -1.125 20.0625 C-1.12886719 19.01642578 -1.13273437 17.97035156 -1.13671875 16.89257812 C-1.12952031 11.16621937 -0.85860317 5.66269234 0 0 Z " fill="#C0BBC1" transform="translate(70,188)"/>
<path d="M0 0 C0.66 0.33 1.32 0.66 2 1 C0.92173635 2.27513763 -0.16285519 3.54492569 -1.25 4.8125 C-1.85328125 5.52019531 -2.4565625 6.22789063 -3.078125 6.95703125 C-4.92882243 8.92433767 -6.81531764 10.42468152 -9 12 C-9.66 12.66 -10.32 13.32 -11 14 C-11.99 14 -12.98 14 -14 14 C-14.268125 14.639375 -14.53625 15.27875 -14.8125 15.9375 C-16 18 -16 18 -19 19 C-19 19.66 -19 20.32 -19 21 C-20.65 21.66 -22.3 22.32 -24 23 C-21.54157 18.22565769 -18.16612172 15.06086173 -14.25 11.5 C-13.65445313 10.94441406 -13.05890625 10.38882813 -12.4453125 9.81640625 C-8.5028601 6.18969138 -4.41478303 3.03374834 0 0 Z " fill="#ABA6AB" transform="translate(95,73)"/>
<path d="M0 0 C1.32 0.33 2.64 0.66 4 1 C4.99250545 6.70690634 5.10477512 12.21408489 5 18 C5.66 18 6.32 18 7 18 C7.33 21.63 7.66 25.26 8 29 C3.36681346 24.42521497 2.77497712 19.54166563 1.75 13.375 C1.57726562 12.42109375 1.40453125 11.4671875 1.2265625 10.484375 C0 3.57279266 0 3.57279266 0 0 Z " fill="#A39EAB" transform="translate(308,174)"/>
<path d="M0 0 C0.99 0.33 1.98 0.66 3 1 C3 1.99 3 2.98 3 4 C3.66 4.33 4.32 4.66 5 5 C8.24614442 8.761887 10.28948946 12.02642624 11 17 C11.66 17.66 12.32 18.32 13 19 C13.1953125 21.1640625 13.1953125 21.1640625 13.125 23.625 C13.10695313 24.44226563 13.08890625 25.25953125 13.0703125 26.1015625 C13.03550781 27.04128906 13.03550781 27.04128906 13 28 C10.37040732 25.37040732 9.47268617 22.35042014 8.1875 18.9375 C6.11992963 13.57758337 3.86788039 8.56489687 0.8828125 3.63671875 C0 2 0 2 0 0 Z " fill="#C5C2CA" transform="translate(410,155)"/>
<path d="M0 0 C0.66 1.32 1.32 2.64 2 4 C1.34 4 0.68 4 0 4 C0 4.66 0 5.32 0 6 C0.639375 6.103125 1.27875 6.20625 1.9375 6.3125 C2.618125 6.539375 3.29875 6.76625 4 7 C4.33 7.99 4.66 8.98 5 10 C5.71671875 10.10699219 6.4334375 10.21398437 7.171875 10.32421875 C10.26988071 11.06448807 12.51301863 12.19407539 15.25 13.8125 C16.12140625 14.31394531 16.9928125 14.81539063 17.890625 15.33203125 C20 17 20 17 20.796875 19.19921875 C20.89742188 20.09060547 20.89742188 20.09060547 21 21 C17.55044666 19.72199484 14.61909971 18.23881563 11.57421875 16.1796875 C10.77822266 15.64472656 9.98222656 15.10976563 9.16210938 14.55859375 C7.93717773 13.72521484 7.93717773 13.72521484 6.6875 12.875 C5.85154297 12.31167969 5.01558594 11.74835938 4.15429688 11.16796875 C2.10000948 9.78279211 0.04872962 8.39337781 -2 7 C-1.125 1.125 -1.125 1.125 0 0 Z " fill="#A4A0AC" transform="translate(405,338)"/>
<path d="M0 0 C1.83997207 6.50614126 1.57371412 12.72657183 -1 19 C-1.66 19 -2.32 19 -3 19 C-3.66 21.31 -4.32 23.62 -5 26 C-5.99 26 -6.98 26 -8 26 C-5.42867609 17.30348988 -2.71587276 8.652148 0 0 Z " fill="#F1EDF0" transform="translate(428,284)"/>
<path d="M0 0 C0.33 0 0.66 0 1 0 C3.90683496 11.89606639 3.22133575 24.09897232 3.125 36.25 C3.1149518 38.45963137 3.1058292 40.66926715 3.09765625 42.87890625 C3.07578478 48.25270162 3.04245259 53.62632986 3 59 C2.67 59 2.34 59 2 59 C1.97494385 57.81970215 1.9498877 56.6394043 1.92407227 55.42333984 C1.82963494 51.02870525 1.729504 46.63421536 1.62768555 42.23974609 C1.58447373 40.34069208 1.5427894 38.44160266 1.50268555 36.54248047 C1.4446485 33.80685777 1.38105173 31.07141106 1.31640625 28.3359375 C1.29969376 27.49195404 1.28298126 26.64797058 1.26576233 25.77841187 C1.15709442 21.41770404 0.79502015 17.30077163 0 13 C-0.06522873 10.70916711 -0.0858841 8.41664206 -0.0625 6.125 C-0.05347656 4.97257812 -0.04445313 3.82015625 -0.03515625 2.6328125 C-0.02355469 1.76398438 -0.01195313 0.89515625 0 0 Z " fill="#BFBABD" transform="translate(128,342)"/>
<path d="M0 0 C0.66 0 1.32 0 2 0 C0.25180861 6.11866987 -2.18027712 11.68941333 -5 17.375 C-5.34417969 18.07689453 -5.68835938 18.77878906 -6.04296875 19.50195312 C-7.71463329 22.81646041 -9.2869412 25.47620203 -12 28 C-12 26.35 -12 24.7 -12 23 C-11.34 23 -10.68 23 -10 23 C-9.87625 21.906875 -9.7525 20.81375 -9.625 19.6875 C-9 16 -9 16 -7 13 C-6.34 13 -5.68 13 -5 13 C-5 11.35 -5 9.7 -5 8 C-4.34 8 -3.68 8 -3 8 C-2.67 6.35 -2.34 4.7 -2 3 C-1.34 3 -0.68 3 0 3 C0 2.01 0 1.02 0 0 Z " fill="#A9A1AC" transform="translate(457,325)"/>
<path d="M0 0 C1.93935809 2.90903713 2.53440086 4.62569515 3.2890625 7.96484375 C3.50820313 8.92970703 3.72734375 9.89457031 3.953125 10.88867188 C4.17484375 11.89478516 4.3965625 12.90089844 4.625 13.9375 C4.85445313 14.93974609 5.08390625 15.94199219 5.3203125 16.97460938 C6.25039469 21.12399391 7 24.72517551 7 29 C6.34 29 5.68 29 5 29 C1.72006891 20.03875969 1.72006891 20.03875969 2 15 C1.70250054 13.32656552 1.37872934 11.65694085 1 10 C0.67 10 0.34 10 0 10 C0 6.7 0 3.4 0 0 Z " fill="#CFC8CE" transform="translate(345,153)"/>
<path d="M0 0 C0.33 1.32 0.66 2.64 1 4 C1.66 4 2.32 4 3 4 C3.50944993 6.81107194 4.0077016 9.62341589 4.5 12.4375 C4.64308594 13.22060547 4.78617188 14.00371094 4.93359375 14.81054688 C5.87971603 20.28454005 6.13345719 25.44484438 6 31 C5.67 31 5.34 31 5 31 C2.29392176 20.60362498 0.34167308 10.77978583 0 0 Z " fill="#BBB7BF" transform="translate(30,219)"/>
<path d="M0 0 C0.66 0 1.32 0 2 0 C1.84204914 7.10778876 -1.61705314 12.52812224 -6 18 C-8.16796875 19.19921875 -8.16796875 19.19921875 -10 20 C-10.33 20.66 -10.66 21.32 -11 22 C-11 20.68 -11 19.36 -11 18 C-10.01 18 -9.02 18 -8 18 C-8 16.35 -8 14.7 -8 13 C-7.34 13 -6.68 13 -6 13 C-5.67 12.01 -5.34 11.02 -5 10 C-4.34 10 -3.68 10 -3 10 C-2.87625 9.0925 -2.7525 8.185 -2.625 7.25 C-2.07890323 4.41029677 -1.42736197 2.47409409 0 0 Z " fill="#ABA6AA" transform="translate(350,353)"/>
<path d="M0 0 C0.66 0 1.32 0 2 0 C2 0.66 2 1.32 2 2 C2.99 2.33 3.98 2.66 5 3 C5.625 4.6875 5.625 4.6875 6 7 C6.185625 8.0725 6.37125 9.145 6.5625 10.25 C6.706875 11.1575 6.85125 12.065 7 13 C7.66 13 8.32 13 9 13 C9.12375 13.78375 9.2475 14.5675 9.375 15.375 C9.79117993 18.14057822 9.79117993 18.14057822 12 20 C11.625 22.125 11.625 22.125 11 24 C0 6.57388316 0 6.57388316 0 0 Z " fill="#AFA5B1" transform="translate(41,263)"/>
<path d="M0 0 C1.32 0.33 2.64 0.66 4 1 C4 2.65 4 4.3 4 6 C4.96679688 6.33644531 4.96679688 6.33644531 5.953125 6.6796875 C8 8 8 8 8.609375 10.3828125 C8.65578125 11.28773438 8.7021875 12.19265625 8.75 13.125 C8.80671875 14.03507813 8.8634375 14.94515625 8.921875 15.8828125 C8.96054687 16.93082031 8.96054687 16.93082031 9 18 C9.66 18 10.32 18 11 18 C11 20.97 11 23.94 11 27 C9.22441584 23.44883168 7.91813956 20.05601549 6.625 16.3125 C4.66004971 10.73250763 2.4957698 5.36128328 0 0 Z " fill="#B1ADB4" transform="translate(297,146)"/>
<path d="M0 0 C-2.46976184 2.9203265 -4.91457489 3.90094358 -8.5 5.125 C-9.4590625 5.45757812 -10.418125 5.79015625 -11.40625 6.1328125 C-15.87054274 7.6253923 -19.26602642 8.08932026 -24 8 C-21.06030448 5.06030448 -17.56415128 4.22875124 -13.6875 2.875 C-12.92759766 2.59785156 -12.16769531 2.32070313 -11.38476562 2.03515625 C-7.47962815 0.65767075 -4.20486983 -0.38607587 0 0 Z " fill="#BDB7BF" transform="translate(151,48)"/>
<path d="M0 0 C1.32 0 2.64 0 4 0 C7.93533487 7.05080831 7.93533487 7.05080831 7 11 C3.82829953 13.79411708 1.86359664 14.93602988 -2.375 15.25 C-3.24125 15.1675 -4.1075 15.085 -5 15 C-4 13 -4 13 -1.93359375 12.1484375 C-1.10988281 11.89320313 -0.28617187 11.63796875 0.5625 11.375 C1.38878906 11.11460937 2.21507812 10.85421875 3.06640625 10.5859375 C3.70449219 10.39257812 4.34257812 10.19921875 5 10 C4.6390625 9.44570312 4.278125 8.89140625 3.90625 8.3203125 C3.4421875 7.59585938 2.978125 6.87140625 2.5 6.125 C2.0359375 5.40570313 1.571875 4.68640625 1.09375 3.9453125 C0 2 0 2 0 0 Z " fill="#C6C1CC" transform="translate(337,235)"/>
<path d="M0 0 C0.99 0.66 1.98 1.32 3 2 C1.54634731 3.17249353 0.08692581 4.33783816 -1.375 5.5 C-2.59316406 6.47453125 -2.59316406 6.47453125 -3.8359375 7.46875 C-6 9 -6 9 -8 9 C-8 9.66 -8 10.32 -8 11 C-8.66 11 -9.32 11 -10 11 C-10 11.66 -10 12.32 -10 13 C-11.98 13.99 -11.98 13.99 -14 15 C-14 13.68 -14 12.36 -14 11 C-13.34 11 -12.68 11 -12 11 C-11.34 9.68 -10.68 8.36 -10 7 C-9.01 7 -8.02 7 -7 7 C-7 6.34 -7 5.68 -7 5 C-6.34 5 -5.68 5 -5 5 C-5 4.34 -5 3.68 -5 3 C-4.360625 2.690625 -3.72125 2.38125 -3.0625 2.0625 C-1.06389179 1.1654837 -1.06389179 1.1654837 0 0 Z " fill="#B8B4BA" transform="translate(120,103)"/>
<path d="M0 0 C4.76634239 0.5527355 7.98170113 1.3185906 12.01171875 4.08203125 C14.20302409 4.77782579 14.20302409 4.77782579 16.01171875 5.08203125 C16.01171875 5.74203125 16.01171875 6.40203125 16.01171875 7.08203125 C16.67171875 7.08203125 17.33171875 7.08203125 18.01171875 7.08203125 C18.01171875 7.74203125 18.01171875 8.40203125 18.01171875 9.08203125 C16.79484375 8.66953125 15.57796875 8.25703125 14.32421875 7.83203125 C8.25414726 5.80544189 2.13330324 3.94594492 -3.98828125 2.08203125 C-1.98828125 0.08203125 -1.98828125 0.08203125 0 0 Z " fill="#C3BEC4" transform="translate(222.98828125,84.91796875)"/>
<path d="M0 0 C-2.60987699 2.94995187 -4.50905842 3.51278637 -8.4609375 3.8828125 C-13.63916858 4.12180778 -18.81807588 4.07109347 -24 4 C-16.98665543 -0.67556305 -8.15696294 -0.27913561 0 0 Z " fill="#C8C4CD" transform="translate(175,44)"/>
<path d="M0 0 C0.98484375 0.02707031 1.9696875 0.05414063 2.984375 0.08203125 C3.73203125 0.11683594 4.4796875 0.15164063 5.25 0.1875 C1.87423055 2.43801296 -1.65443884 4.1480629 -5.3125 5.875 C-5.99763672 6.20822266 -6.68277344 6.54144531 -7.38867188 6.88476562 C-9.1475444 7.71500869 -10.94688481 8.45831437 -12.75 9.1875 C-13.41 8.8575 -14.07 8.5275 -14.75 8.1875 C-14.09 7.1975 -13.43 6.2075 -12.75 5.1875 C-11.76 5.1875 -10.77 5.1875 -9.75 5.1875 C-9.75 4.5275 -9.75 3.8675 -9.75 3.1875 C-6.61307852 0.10286055 -4.30486563 -0.1537452 0 0 Z " fill="#BBB4BB" transform="translate(376.75,272.8125)"/>
<path d="M0 0 C0.33 0.66 0.66 1.32 1 2 C-0.07918104 4.57343171 -1.44402274 6.66603411 -3 9 C-3.66 9 -4.32 9 -5 9 C-5.0825 9.7425 -5.165 10.485 -5.25 11.25 C-6.14719707 14.5397226 -7.54970779 15.70285105 -10 18 C-10.33 18.99 -10.66 19.98 -11 21 C-11.66 21 -12.32 21 -13 21 C-11.58041326 15.71913732 -9.1463513 12.00379079 -5.9375 7.6875 C-5.47794922 7.05521484 -5.01839844 6.42292969 -4.54492188 5.77148438 C-1.23028274 1.23028274 -1.23028274 1.23028274 0 0 Z " fill="#B6ABB7" transform="translate(63,104)"/>
<path d="M0 0 C2.18936986 4.26581748 3.93064162 8.66772002 5.6875 13.125 C6.02072266 13.94871094 6.35394531 14.77242187 6.69726562 15.62109375 C7.00728516 16.40871094 7.31730469 17.19632813 7.63671875 18.0078125 C7.92248779 18.72598145 8.20825684 19.44415039 8.50268555 20.18408203 C9 22 9 22 8 24 C7.525625 23.505 7.05125 23.01 6.5625 22.5 C5.24076302 20.88457803 5.24076302 20.88457803 4 21 C3.67 18.03 3.34 15.06 3 12 C2.34 12 1.68 12 1 12 C0.03929566 9.11788698 -0.10581883 7.30149956 -0.0625 4.3125 C-0.05347656 3.50425781 -0.04445313 2.69601563 -0.03515625 1.86328125 C-0.02355469 1.24839844 -0.01195313 0.63351563 0 0 Z " fill="#AAA5AA" transform="translate(74,233)"/>
<path d="M0 0 C0.33 0 0.66 0 1 0 C1.45755719 7.62595318 -0.25463701 14.6029854 -2 22 C-2.33 22 -2.66 22 -3 22 C-3 17.05 -3 12.1 -3 7 C-2.34 7 -1.68 7 -1 7 C-1.33 5.35 -1.66 3.7 -2 2 C-1.34 2 -0.68 2 0 2 C0 1.34 0 0.68 0 0 Z " fill="#C3BFC2" transform="translate(471,274)"/>
<path d="M0 0 C-0.99 0.66 -1.98 1.32 -3 2 C-3.99 3.485 -3.99 3.485 -5 5 C-7.0234375 5.765625 -7.0234375 5.765625 -9.375 6.25 C-10.14585937 6.42015625 -10.91671875 6.5903125 -11.7109375 6.765625 C-14.09544508 7.00977253 -15.73234568 6.72482102 -18 6 C-3.26315789 -1.63157895 -3.26315789 -1.63157895 0 0 Z " fill="#B2ADB0" transform="translate(331,251)"/>
<path d="M0 0 C0.33 0 0.66 0 1 0 C1.19389096 2.4788213 1.38040123 4.95780931 1.5625 7.4375 C1.61857422 8.14455078 1.67464844 8.85160156 1.73242188 9.58007812 C1.86190993 11.38427837 1.93521608 13.19231952 2 15 C1.67 15.33 1.34 15.66 1 16 C0.84285346 17.63256758 0.74914586 19.27135338 0.68359375 20.91015625 C0.64169922 21.89951172 0.59980469 22.88886719 0.55664062 23.90820312 C0.51732422 24.94912109 0.47800781 25.99003906 0.4375 27.0625 C0.39431641 28.10728516 0.35113281 29.15207031 0.30664062 30.22851562 C0.20018775 32.81886884 0.0981724 35.40932186 0 38 C-0.33 38 -0.66 38 -1 38 C-1.02492452 33.87403297 -1.04296521 29.74809578 -1.05493164 25.62207031 C-1.05992616 24.22167191 -1.06672408 22.82127863 -1.07543945 21.42089844 C-1.16225376 7.101645 -1.16225376 7.101645 0 0 Z " fill="#84808A" transform="translate(30,180)"/>
<path d="M0 0 C4.90566038 6.13207547 4.90566038 6.13207547 5 10 C3.73689741 13.39043326 2.91064331 15.42759563 -0.1875 17.375 C-0.785625 17.58125 -1.38375 17.7875 -2 18 C-2 17.01 -2 16.02 -2 15 C-1.01 15 -0.02 15 1 15 C0.67 10.05 0.34 5.1 0 0 Z " fill="#B8B0B6" transform="translate(395,250)"/>
<path d="M0 0 C5.25412337 0.41208811 8.28336057 1.17717087 12 5 C13.3125 7.75 13.3125 7.75 14 10 C13.34 10 12.68 10 12 10 C12 9.34 12 8.68 12 8 C11.319375 7.773125 10.63875 7.54625 9.9375 7.3125 C6.27461218 5.67589055 3.0916961 3.55710888 0 1 C0 0.67 0 0.34 0 0 Z " fill="#BDBAC1" transform="translate(256,102)"/>
<path d="M0 0 C2.64 0 5.28 0 8 0 C5.06698229 2.27138348 2.04931207 4.26869942 -1.125 6.1875 C-1.99382812 6.71730469 -2.86265625 7.24710937 -3.7578125 7.79296875 C-6 9 -6 9 -8 9 C-7.75 7.125 -7.75 7.125 -7 5 C-4.41847698 3.27898465 -3.15081975 3 0 3 C0 2.01 0 1.02 0 0 Z " fill="#BAB6BC" transform="translate(131,95)"/>
<path d="M0 0 C3.18446935 5.91401451 4.34333902 12.3048892 4 19 C3.67 18.01 3.34 17.02 3 16 C2.34 16 1.68 16 1 16 C-1.48351814 10.44860651 -0.85330338 5.83475015 0 0 Z " fill="#B7B1B7" transform="translate(467,186)"/>
<path d="M0 0 C0.33 0 0.66 0 1 0 C1.25052192 7.2651357 1.25052192 7.2651357 0.0625 10.75 C-1.56218994 15.71963981 -1.68047832 20.80356852 -2 26 C-5.0598254 21.4102619 -3.82940986 17.29242482 -3 12 C-2.11686289 7.96545782 -1.10422133 3.97936367 0 0 Z " fill="#A59DAB" transform="translate(35,157)"/>
<path d="M0 0 C0.99 0 1.98 0 3 0 C1.41078475 5.36095277 -0.18972938 10.70843973 -2 16 C-2.33 16 -2.66 16 -3 16 C-2.88590318 13.89521396 -2.75834639 11.79115423 -2.625 9.6875 C-2.55539063 8.51574219 -2.48578125 7.34398437 -2.4140625 6.13671875 C-2 3 -2 3 0 0 Z " fill="#BDB6BC" transform="translate(78,154)"/>
<path d="M0 0 C2.75167577 3.2858246 4.21933799 6.63627487 5.75 10.625 C6.19859375 11.77226562 6.6471875 12.91953125 7.109375 14.1015625 C8 17 8 17 7 19 C5 16 5 16 5 13 C4.01 12.67 3.02 12.34 2 12 C0.19204568 7.9083139 -0.21156222 4.44280672 0 0 Z " fill="#B0A5AE" transform="translate(337,133)"/>
<path d="M0 0 C0.66 0 1.32 0 2 0 C2 1.32 2 2.64 2 4 C3.32 4.66 4.64 5.32 6 6 C5.34 6 4.68 6 4 6 C4 6.99 4 7.98 4 9 C4.66 9 5.32 9 6 9 C6 12.63 6 16.26 6 20 C5.67 20 5.34 20 5 20 C4.35220924 17.60468067 3.70670991 15.20878252 3.0625 12.8125 C2.88009766 12.13896484 2.69769531 11.46542969 2.50976562 10.77148438 C1.5511642 7.19851542 0.67116718 3.63843262 0 0 Z " fill="#A9A1AD" transform="translate(82,332)"/>
<path d="M0 0 C9.24 0 18.48 0 28 0 C28.33 0.99 28.66 1.98 29 3 C27.73285156 2.84660156 26.46570313 2.69320312 25.16015625 2.53515625 C19.92615204 1.95360023 14.69683801 1.67287756 9.4375 1.4375 C8.06754883 1.37272461 8.06754883 1.37272461 6.66992188 1.30664062 C4.44672009 1.20188243 2.22343293 1.09970983 0 1 C0 0.67 0 0.34 0 0 Z " fill="#CCC7CB" transform="translate(184,82)"/>
<path d="M0 0 C0.66 0.33 1.32 0.66 2 1 C0.84826645 3.46800047 -0.04783565 5.04783565 -2 7 C-2.99 7 -3.98 7 -5 7 C-5.33 7.66 -5.66 8.32 -6 9 C-7.65 9 -9.3 9 -11 9 C-11 8.34 -11 7.68 -11 7 C-8.6640625 5.23828125 -8.6640625 5.23828125 -5.625 3.3125 C-4.62726563 2.66925781 -3.62953125 2.02601563 -2.6015625 1.36328125 C-1.74304688 0.91339844 -0.88453125 0.46351562 0 0 Z " fill="#BBB7BA" transform="translate(425,127)"/>
<path d="M0 0 C0 0.66 0 1.32 0 2 C-0.66 2 -1.32 2 -2 2 C-2 2.66 -2 3.32 -2 4 C-3.65 4.33 -5.3 4.66 -7 5 C-7 5.66 -7 6.32 -7 7 C-11.625 9.125 -11.625 9.125 -15 8 C-13.20909242 6.8529806 -11.41725003 5.70742065 -9.625 4.5625 C-8.12839844 3.60537109 -8.12839844 3.60537109 -6.6015625 2.62890625 C-2.4028777 0 -2.4028777 0 0 0 Z " fill="#AFAAAF" transform="translate(118,60)"/>
<path d="M0 0 C0.33 0 0.66 0 1 0 C1.33 1.65 1.66 3.3 2 5 C2.33 5 2.66 5 3 5 C3 8.96 3 12.92 3 17 C2.34 17 1.68 17 1 17 C0.63917123 14.35491639 0.28604648 11.70920453 -0.0625 9.0625 C-0.16626953 8.30775391 -0.27003906 7.55300781 -0.37695312 6.77539062 C-0.62665638 4.85525872 -0.81790281 2.92771856 -1 1 C-0.67 0.67 -0.34 0.34 0 0 Z " fill="#B1ADB3" transform="translate(430,205)"/>
<path d="M0 0 C2.46968633 2.46968633 3.06997969 4.57488587 4.1875 7.875 C4.55230469 8.92429688 4.91710937 9.97359375 5.29296875 11.0546875 C5.98462433 13.93594885 6.03230681 15.27786612 5 18 C5 17.01 5 16.02 5 15 C4.34 15 3.68 15 3 15 C0.73045369 11.59568053 0.63450051 9.83475798 0.375 5.8125 C0.30023438 4.72582031 0.22546875 3.63914063 0.1484375 2.51953125 C0.09945313 1.68808594 0.05046875 0.85664063 0 0 Z " fill="#A79CA7" transform="translate(461,168)"/>
<path d="M0 0 C2.1875 1.125 2.1875 1.125 3.5 3.6875 C3.8403125 4.8940625 3.8403125 4.8940625 4.1875 6.125 C1.1875 5.125 1.1875 5.125 -0.8125 3.125 C-3.41530568 3.44541397 -3.41530568 3.44541397 -5.8125 4.125 C-5.8125 4.785 -5.8125 5.445 -5.8125 6.125 C-7.1325 5.795 -8.4525 5.465 -9.8125 5.125 C-3.86521708 0.17178743 -3.86521708 0.17178743 0 0 Z " fill="#B1A8B1" transform="translate(436.8125,120.875)"/>
<path d="M0 0 C0.66 0 1.32 0 2 0 C2.23742018 1.89936141 2.47360004 3.79888709 2.703125 5.69921875 C2.89744225 7.20517746 3.11533807 8.7083262 3.359375 10.20703125 C4.2125 15.68125 4.2125 15.68125 2 19 C0.67611771 12.56971459 -0.24794402 6.5705166 0 0 Z " fill="#EEEBF0" transform="translate(88,344)"/>
<path d="M0 0 C0.33 0 0.66 0 1 0 C2.17293889 6.3778552 3.29530838 12.50321562 3 19 C2.34 19 1.68 19 1 19 C0.15976812 14.64667264 -0.10770995 10.55557481 -0.0625 6.125 C-0.05347656 4.97257812 -0.04445313 3.82015625 -0.03515625 2.6328125 C-0.02355469 1.76398438 -0.01195313 0.89515625 0 0 Z " fill="#A19BA0" transform="translate(128,342)"/>
<path d="M0 0 C1.32 0.33 2.64 0.66 4 1 C4.103125 1.598125 4.20625 2.19625 4.3125 2.8125 C4.82484936 5.07883283 4.82484936 5.07883283 6.5625 6.4375 C8 8 8 8 8.1875 10.6875 C8.125625 11.450625 8.06375 12.21375 8 13 C5.36137192 11.68068596 4.8340676 10.20135456 3.4375 7.625 C3.00308594 6.83351562 2.56867188 6.04203125 2.12109375 5.2265625 C1 3 1 3 0 0 Z " fill="#AFABB1" transform="translate(324,215)"/>
<path d="M0 0 C1.32 0 2.64 0 4 0 C2.59023295 3.03852705 0.91129772 5.5939595 -1.125 8.25 C-1.66382812 8.95640625 -2.20265625 9.6628125 -2.7578125 10.390625 C-3.16773437 10.92171875 -3.57765625 11.4528125 -4 12 C-4.58203125 10.125 -4.58203125 10.125 -5 8 C-3.6875 6 -3.6875 6 -2 4 C-1.30419733 2.68163705 -0.62775567 1.35208914 0 0 Z " fill="#B9B4B8" transform="translate(95,125)"/>
<path d="M0 0 C1.51553092 3.97450493 0.49888623 7.20481149 -0.4375 11.25 C-0.72496094 12.51328125 -1.01242188 13.7765625 -1.30859375 15.078125 C-1.53675781 16.04234375 -1.76492187 17.0065625 -2 18 C-2.33 18 -2.66 18 -3 18 C-3.12001711 12.23917868 -3.0149136 6.68351614 -2 1 C-1.34 0.67 -0.68 0.34 0 0 Z " fill="#B1ACB0" transform="translate(74,170)"/>
<path d="M0 0 C2.8125 0.125 2.8125 0.125 6 1 C7.9375 3.875 7.9375 3.875 9 7 C8.67 7.99 8.34 8.98 8 10 C6.66370254 8.52351062 5.33103329 7.0437367 4 5.5625 C3.2575 4.73878906 2.515 3.91507812 1.75 3.06640625 C0 1 0 1 0 0 Z " fill="#B6B0B9" transform="translate(278,120)"/>
<path d="M0 0 C-2.99004241 1.53674273 -6.01823885 2.90306293 -9.125 4.1875 C-9.99382812 4.55230469 -10.86265625 4.91710937 -11.7578125 5.29296875 C-14 6 -14 6 -16 5 C-15.67 4.34 -15.34 3.68 -15 3 C-13.35 3 -11.7 3 -10 3 C-10 2.34 -10 1.68 -10 1 C-6.42181037 -1.33958553 -4.07775191 -0.9267618 0 0 Z " fill="#9B969B" transform="translate(155,89)"/>
<path d="M0 0 C0.33 0 0.66 0 1 0 C1.92817192 3.62830843 2.26901295 5.41073355 0.6875 8.875 C0.130625 9.57625 -0.42625 10.2775 -1 11 C-1.66 11 -2.32 11 -3 11 C-3 11.99 -3 12.98 -3 14 C-3.66 14 -4.32 14 -5 14 C-3.45730076 9.27934033 -1.92205381 4.58335908 0 0 Z " fill="#A19CA3" transform="translate(419,310)"/>
<path d="M0 0 C2.5 2.3125 2.5 2.3125 5 5 C5 5.99 5 6.98 5 8 C5.66 8 6.32 8 7 8 C6.67 8.66 6.34 9.32 6 10 C4.125 9.8125 4.125 9.8125 2 9 C0.8125 6.5625 0.8125 6.5625 0 4 C-0.33 3.34 -0.66 2.68 -1 2 C-0.67 1.34 -0.34 0.68 0 0 Z " fill="#B7B1B3" transform="translate(387,238)"/>
<path d="M0 0 C3.49695404 0.64758408 6.12552877 1.90241288 9 4 C9.8125 6.1875 9.8125 6.1875 10 8 C5.56983933 6.60766379 3.08449737 4.43701135 0 1 C0 0.67 0 0.34 0 0 Z " fill="#BAB6BC" transform="translate(416,351)"/>
<path d="M0 0 C0.33 0 0.66 0 1 0 C1.49940808 6.11774896 0.24900602 9.02495953 -3 14 C-3.33 14 -3.66 14 -4 14 C-4 12.35 -4 10.7 -4 9 C-3.34 9 -2.68 9 -2 9 C-1.7834375 7.329375 -1.7834375 7.329375 -1.5625 5.625 C-1 2 -1 2 0 0 Z " fill="#C6C2C4" transform="translate(449,339)"/>
<path d="M0 0 C1.14864928 3.95935925 0.88397934 6.94842803 0 11 C-1.5625 12.9375 -1.5625 12.9375 -3 14 C-4.25955231 10.22134307 -3.48087189 8.96588214 -2.0625 5.3125 C-1.68222656 4.31863281 -1.30195313 3.32476562 -0.91015625 2.30078125 C-0.60980469 1.54152344 -0.30945313 0.78226562 0 0 Z " fill="#ABA4AC" transform="translate(424,297)"/>
<path d="M0 0 C1.32 0.33 2.64 0.66 4 1 C4.33 3.97 4.66 6.94 5 10 C3.68 9.34 2.36 8.68 1 8 C0.16113831 5.32209537 0.18233586 2.8262059 0 0 Z " fill="#BEBBC0" transform="translate(308,174)"/>
<path d="M0 0 C0.99 0.33 1.98 0.66 3 1 C3 1.99 3 2.98 3 4 C3.66 4.33 4.32 4.66 5 5 C7.29013653 8.4352048 7.17842973 9.985331 7 14 C3.94998169 10.33997803 0 4.92148529 0 0 Z " fill="#ABA6B4" transform="translate(410,155)"/>
<path d="M0 0 C2.47186455 2.96346786 3.66248361 5.54041689 4.6875 9.25 C4.93886719 10.14203125 5.19023438 11.0340625 5.44921875 11.953125 C5.72185547 12.96632813 5.72185547 12.96632813 6 14 C3.26722779 11.82779645 1.27111085 10.14172035 0.4453125 6.6640625 C0.21349978 4.43725548 0.05362988 2.23782882 0 0 Z " fill="#ADA5B0" transform="translate(117,310)"/>
<path d="M0 0 C0.33 0 0.66 0 1 0 C1.2358396 5.77807024 0.86783046 10.51324804 -1 16 C-1.66 15.67 -2.32 15.34 -3 15 C-2.69052329 13.06201479 -2.37731166 11.12462574 -2.0625 9.1875 C-1.88847656 8.10855469 -1.71445312 7.02960938 -1.53515625 5.91796875 C-1 3 -1 3 0 0 Z " fill="#C6C0C8" transform="translate(432,266)"/>
<path d="M0 0 C0.66 0 1.32 0 2 0 C2 0.66 2 1.32 2 2 C2.99 2.33 3.98 2.66 5 3 C5.625 4.75 5.625 4.75 6 7 C6.185625 7.9075 6.37125 8.815 6.5625 9.75 C6.706875 10.4925 6.85125 11.235 7 12 C1.33064516 6.62903226 1.33064516 6.62903226 0 3 C0 2.01 0 1.02 0 0 Z " fill="#D0CDD0" transform="translate(41,263)"/>
<path d="M0 0 C0.66 0.33 1.32 0.66 2 1 C2 1.66 2 2.32 2 3 C-2.0909066 6.31168629 -4.73628638 7.50130606 -10 7 C-9 5 -9 5 -6.93359375 4.1484375 C-5.69802734 3.76558594 -5.69802734 3.76558594 -4.4375 3.375 C-3.61121094 3.11460937 -2.78492188 2.85421875 -1.93359375 2.5859375 C-1.29550781 2.39257812 -0.65742188 2.19921875 0 2 C0 1.34 0 0.68 0 0 Z " fill="#ACA8AD" transform="translate(342,243)"/>
<path d="M0 0 C1.15782198 3.38084018 0.83835147 5.29663219 -0.375 8.625 C-0.65085938 9.40101563 -0.92671875 10.17703125 -1.2109375 10.9765625 C-2 13 -2 13 -3 15 C-4.6077072 10.98073199 -3.34539351 7.96537036 -2 4 C-1.37530495 2.64649406 -0.7283669 1.30065517 0 0 Z " fill="#D3CAD2" transform="translate(49,125)"/>
<path d="M0 0 C2.71675995 0.36712972 4.61063713 0.72744599 6.875 2.3125 C7.431875 3.1478125 7.431875 3.1478125 8 4 C7.5703125 6.10546875 7.5703125 6.10546875 7 8 C5.83035398 6.8572081 4.66435444 5.71068285 3.5 4.5625 C2.8503125 3.92441406 2.200625 3.28632812 1.53125 2.62890625 C0 1 0 1 0 0 Z " fill="#BDB8C2" transform="translate(270,112)"/>
<path d="M0 0 C5.91260345 -0.25706972 11.23918159 0.7017874 17 2 C17 2.33 17 2.66 17 3 C12.05118487 3.90896604 7.93467213 4.08562787 3 3 C2.67 2.34 2.34 1.68 2 1 C1.34 0.67 0.68 0.34 0 0 Z " fill="#A09BA9" transform="translate(212,44)"/>
<path d="M0 0 C2.71928517 0.37507382 3.84218661 0.84218661 5.8125 2.8125 C7 5 7 5 6.6875 7.25 C6.460625 7.8275 6.23375 8.405 6 9 C3.03134491 6.45543849 1.6380249 3.51005335 0 0 Z " fill="#C3BDC2" transform="translate(316,203)"/>
<path d="M0 0 C0.99 0 1.98 0 3 0 C2.67 1.32 2.34 2.64 2 4 C1.34 4 0.68 4 0 4 C0 4.66 0 5.32 0 6 C-1.98 6.99 -1.98 6.99 -4 8 C-4 6.68 -4 5.36 -4 4 C-3.34 4 -2.68 4 -2 4 C-1.34 2.68 -0.68 1.36 0 0 Z " fill="#CFC3CC" transform="translate(110,110)"/>
<path d="M0 0 C3.29078593 2.79716804 5.06305458 6.19528578 7 10 C6.67 10.66 6.34 11.32 6 12 C4.35 11.01 2.7 10.02 1 9 C1.33 7.35 1.66 5.7 2 4 C1.34 4 0.68 4 0 4 C0 2.68 0 1.36 0 0 Z " fill="#B4AEB6" transform="translate(83,257)"/>
<path d="M0 0 C0.66 0.33 1.32 0.66 2 1 C0.92807816 2.3218362 -0.15802695 3.63217927 -1.25 4.9375 C-1.85328125 5.66839844 -2.4565625 6.39929688 -3.078125 7.15234375 C-5.10741134 9.10326334 -6.254407 9.61731779 -9 10 C-3.9977221 2.51708428 -3.9977221 2.51708428 0 0 Z " fill="#C7C3C9" transform="translate(95,73)"/>
<path d="M0 0 C-1.28813342 0.83878455 -2.58063256 1.67086783 -3.875 2.5 C-4.59429687 2.9640625 -5.31359375 3.428125 -6.0546875 3.90625 C-8 5 -8 5 -10 5 C-10 4.01 -10 3.02 -10 2 C-8.68 2 -7.36 2 -6 2 C-6 1.34 -6 0.68 -6 0 C-3.50907189 -1.24546405 -2.58919267 -0.7767578 0 0 Z " fill="#C0B7BF" transform="translate(338,376)"/>
<path d="M0 0 C0.66 0 1.32 0 2 0 C2.433125 0.9590625 2.433125 0.9590625 2.875 1.9375 C3.82823451 4.15206079 3.82823451 4.15206079 6 5 C6.40729228 7.32156597 6.74438677 9.6568787 7 12 C4.39954125 9.6975881 3.15260817 7.50103323 1.8125 4.3125 C1.46832031 3.50425781 1.12414062 2.69601562 0.76953125 1.86328125 C0.51558594 1.24839844 0.26164062 0.63351562 0 0 Z " fill="#928D9C" transform="translate(75,319)"/>
<path d="M0 0 C0.66 0 1.32 0 2 0 C1.71572583 1.58467728 1.42225182 3.1677057 1.125 4.75 C0.88136719 6.07257813 0.88136719 6.07257813 0.6328125 7.421875 C0 10 0 10 -2 14 C-2 11.03 -2 8.06 -2 5 C-1.34 5 -0.68 5 0 5 C0 3.35 0 1.7 0 0 Z " fill="#A39FA7" transform="translate(466,297)"/>
<path d="M0 0 C2.61500768 2.36595933 4.38999603 4.86049226 6 8 C5.67 8.66 5.34 9.32 5 10 C4.01 9.67 3.02 9.34 2 9 C2 7.68 2 6.36 2 5 C1.34 5 0.68 5 0 5 C0 3.35 0 1.7 0 0 Z " fill="#B8ADB8" transform="translate(381,228)"/>
<path d="M0 0 C1.5 1.25 1.5 1.25 3 3 C3 4.32 3 5.64 3 7 C3.66 7 4.32 7 5 7 C4.67 8.98 4.34 10.96 4 13 C1.12420019 8.68630028 0 5.19265239 0 0 Z " fill="#A3A1AA" transform="translate(423,183)"/>
<path d="M0 0 C2.55803184 3.83704776 4.34505724 7.75712791 3.625 12.4375 C3.41875 12.953125 3.2125 13.46875 3 14 C2.34 12.68 1.68 11.36 1 10 C0.67 10 0.34 10 0 10 C0 6.7 0 3.4 0 0 Z " fill="#AEA2AC" transform="translate(345,153)"/>
<path d="M0 0 C2.63249349 2.45699392 4.78137264 4.56568654 6 8 C5.67 8.99 5.34 9.98 5 11 C4.01 10.01 3.02 9.02 2 8 C2.33 7.34 2.66 6.68 3 6 C2.01 5.67 1.02 5.34 0 5 C0 3.35 0 1.7 0 0 Z " fill="#A6A0A6" transform="translate(446,136)"/>
<path d="M0 0 C1.2380014 3.57644848 0.74926071 6.33694766 0 10 C-1.32 10.33 -2.64 10.66 -4 11 C-3.52269162 9.5410574 -3.04308958 8.08286504 -2.5625 6.625 C-2.29566406 5.81289062 -2.02882812 5.00078125 -1.75390625 4.1640625 C-1 2 -1 2 0 0 Z " fill="#B0ACB2" transform="translate(45,132)"/>
<path d="M0 0 C4.10958767 1.45044271 7.43258745 3.51110752 11 6 C7.86650268 7.04449911 7.01031744 6.93423645 4 6 C4 5.01 4 4.02 4 3 C3.01 3 2.02 3 1 3 C0.67 2.01 0.34 1.02 0 0 Z " fill="#ABA0AA" transform="translate(278,68)"/>
<path d="M0 0 C0.66 0 1.32 0 2 0 C1.67 2.31 1.34 4.62 1 7 C0.01 7 -0.98 7 -2 7 C-2.33 7.99 -2.66 8.98 -3 10 C-2.49287967 6.28111761 -1.88391785 3.26545761 0 0 Z " fill="#C8C3C7" transform="translate(350,353)"/>
<path d="M0 0 C3.82932166 3.33916849 3.82932166 3.33916849 4.609375 6.359375 C4.65578125 7.14828125 4.7021875 7.9371875 4.75 8.75 C4.80671875 9.54921875 4.8634375 10.3484375 4.921875 11.171875 C4.94765625 11.77515625 4.9734375 12.3784375 5 13 C2.53698577 10.53698577 2.23233479 8.72639964 1.375 5.375 C1.11460938 4.37210938 0.85421875 3.36921875 0.5859375 2.3359375 C0.39257812 1.56507813 0.19921875 0.79421875 0 0 Z " fill="#B3A7B4" transform="translate(36,250)"/>
<path d="M0 0 C2.20319677 4.40639354 3.10924981 6.97450871 3 12 C2.34 12 1.68 12 1 12 C0.03929566 9.11788698 -0.10581883 7.30149956 -0.0625 4.3125 C-0.05347656 3.50425781 -0.04445313 2.69601563 -0.03515625 1.86328125 C-0.02355469 1.24839844 -0.01195313 0.63351563 0 0 Z " fill="#BAB3B8" transform="translate(74,233)"/>
<path d="M0 0 C1.04005702 3.38018531 1.08004482 6.4780279 1 10 C0.01 10.33 -0.98 10.66 -2 11 C-2.33 11.66 -2.66 12.32 -3 13 C-2.343621 8.51474352 -1.29925791 4.33085971 0 0 Z " fill="#A59DA7" transform="translate(428,284)"/>
<path d="M0 0 C2.475 0.99 2.475 0.99 5 2 C5 4.31 5 6.62 5 9 C2.67527795 6.14693203 1.2491742 3.45925163 0 0 Z " fill="#ADA8AF" transform="translate(292,137)"/>
<path d="M0 0 C1.48117801 0.28127421 2.95993249 0.57533732 4.4375 0.875 C5.67306641 1.11863281 5.67306641 1.11863281 6.93359375 1.3671875 C7.61550781 1.57601562 8.29742187 1.78484375 9 2 C9.33 2.66 9.66 3.32 10 4 C7.03 3.67 4.06 3.34 1 3 C0.67 2.01 0.34 1.02 0 0 Z " fill="#BAB6BC" transform="translate(245,52)"/>
<path d="M0 0 C2.475 0.495 2.475 0.495 5 1 C5.33 3.31 5.66 5.62 6 8 C1.125 3.375 1.125 3.375 0 0 Z " fill="#ADA9AF" transform="translate(61,299)"/>
<path d="M0 0 C0.33 0 0.66 0 1 0 C1.07654536 4.51617599 1.10228696 8.59085217 0 13 C-0.33 13 -0.66 13 -1 13 C-1.33 9.37 -1.66 5.74 -2 2 C-1.34 2 -0.68 2 0 2 C0 1.34 0 0.68 0 0 Z " fill="#B2A8B3" transform="translate(471,274)"/>
<path d="M0 0 C0.66 0 1.32 0 2 0 C2.33 3.63 2.66 7.26 3 11 C0 8 0 8 -0.29296875 5.95703125 C-0.1953125 3.97135417 -0.09765625 1.98567708 0 0 Z " fill="#C4C1CB" transform="translate(313,192)"/>
<path d="M0 0 C3.36720387 1.39332574 4.9859524 2.9789286 7 6 C2.25 5.25 2.25 5.25 0 3 C0 2.01 0 1.02 0 0 Z " fill="#BBB2BB" transform="translate(299,84)"/>
<path d="M0 0 C2.94956528 1.36944102 5.52468811 2.87830409 8 5 C8 5.66 8 6.32 8 7 C4.21388773 6.45912682 2.44599233 4.88277668 0 2 C0 1.34 0 0.68 0 0 Z " fill="#ABA5AB" transform="translate(291,77)"/>
<path d="M0 0 C2.79872437 2.52788007 4.45773019 4.20411134 5 8 C1.125 6.125 1.125 6.125 0 5 C-0.04063832 3.33382885 -0.042721 1.66611905 0 0 Z " fill="#C1BDC1" transform="translate(357,191)"/>
<path d="M0 0 C1.98 0 3.96 0 6 0 C6.66 1.65 7.32 3.3 8 5 C6.68 4.67 5.36 4.34 4 4 C4 3.34 4 2.68 4 2 C2.68 1.67 1.36 1.34 0 1 C0 0.67 0 0.34 0 0 Z " fill="#AEA4B1" transform="translate(248,97)"/>
<path d="M0 0 C2.64 0 5.28 0 8 0 C5.37801226 2.15377564 3.35595828 3.40072174 0 4 C0 2.68 0 1.36 0 0 Z " fill="#B4AEB3" transform="translate(131,95)"/>
<path d="M0 0 C0.99 0 1.98 0 3 0 C2.25 2.4375 2.25 2.4375 1 5 C-1.125 5.8125 -1.125 5.8125 -3 6 C-3.33 5.34 -3.66 4.68 -4 4 C-3.34 4 -2.68 4 -2 4 C-1.34 2.68 -0.68 1.36 0 0 Z " fill="#9A989B" transform="translate(438,360)"/>
<path d="M0 0 C0.99 0 1.98 0 3 0 C2.625 2.9375 2.625 2.9375 2 6 C1.01 6.495 1.01 6.495 0 7 C-1.125 2.25 -1.125 2.25 0 0 Z " fill="#CCC7CA" transform="translate(458,318)"/>
<path d="M0 0 C1.32 0 2.64 0 4 0 C4.12375 0.61875 4.2475 1.2375 4.375 1.875 C4.87197356 4.19120832 4.87197356 4.19120832 7 6 C6.01 7.485 6.01 7.485 5 9 C1.125 2.25 1.125 2.25 0 0 Z " fill="#ADAAB8" transform="translate(69,310)"/>
<path d="M0 0 C0.53625 0.37125 1.0725 0.7425 1.625 1.125 C-1.33164519 2.6033226 -4.11729737 2.18532783 -7.375 2.125 C-7.705 2.785 -8.035 3.445 -8.375 4.125 C-8.375 3.135 -8.375 2.145 -8.375 1.125 C-2.95961538 -1.09038462 -2.95961538 -1.09038462 0 0 Z " fill="#E5E1E1" transform="translate(360.375,280.875)"/>
<path d="M0 0 C2.04795423 1.9626228 2.94976638 3.4277307 3.19921875 6.26953125 C3.18858877 8.51954383 3.12958525 10.75385562 3 13 C2.67 13 2.34 13 2 13 C-0.28571429 4.57142857 -0.28571429 4.57142857 0 0 Z " fill="#9E95A3" transform="translate(33,237)"/>
<path d="M0 0 C1.485 0.99 1.485 0.99 3 2 C3.1875 5.125 3.1875 5.125 3 8 C2.01 8.495 2.01 8.495 1 9 C-0.4783226 6.04335481 -0.06032783 3.25770263 0 0 Z " fill="#E8E6EB" transform="translate(308,167)"/>
<path d="M0 0 C1.99097846 2.98646769 2.94124926 5.59687262 4 9 C3.01 9 2.02 9 1 9 C-0.4783226 6.04335481 -0.06032783 3.25770263 0 0 Z " fill="#A19AA0" transform="translate(457,157)"/>
<path d="M0 0 C0.33 1.32 0.66 2.64 1 4 C0.360625 4.28875 -0.27875 4.5775 -0.9375 4.875 C-3.15206079 5.82823451 -3.15206079 5.82823451 -4 8 C-4.66 7.67 -5.32 7.34 -6 7 C-4.02 4.69 -2.04 2.38 0 0 Z " fill="#B8B3B7" transform="translate(70,96)"/>
<path d="M0 0 C0.66 0.33 1.32 0.66 2 1 C1.67 1.99 1.34 2.98 1 4 C-1.64 4 -4.28 4 -7 4 C-4.61426621 2.10786631 -2.92824652 0.97608217 0 0 Z " fill="#B6B4B8" transform="translate(125,56)"/>
<path d="M0 0 C4.455 0.99 4.455 0.99 9 2 C6 4 6 4 4 4 C4 3.34 4 2.68 4 2 C3.01 2 2.02 2 1 2 C0.67 2.66 0.34 3.32 0 4 C0 2.68 0 1.36 0 0 Z " fill="#BBB5B9" transform="translate(236,49)"/>
<path d="M0 0 C2 3 2 3 3 6 C1.68 7.32 0.36 8.64 -1 10 C-0.67 6.7 -0.34 3.4 0 0 Z " fill="#EBE7EA" transform="translate(429,281)"/>
<path d="M0 0 C2.31 0 4.62 0 7 0 C7 0.66 7 1.32 7 2 C7.66 2 8.32 2 9 2 C9 2.66 9 3.32 9 4 C6.03 3.01 3.06 2.02 0 1 C0 0.67 0 0.34 0 0 Z " fill="#A5A3AA" transform="translate(232,90)"/>
<path d="M0 0 C1.2065625 0.0309375 1.2065625 0.0309375 2.4375 0.0625 C2.1075 0.7225 1.7775 1.3825 1.4375 2.0625 C0.4475 2.3925 -0.5425 2.7225 -1.5625 3.0625 C-1.8925 4.7125 -2.2225 6.3625 -2.5625 8.0625 C-2.8925 8.0625 -3.2225 8.0625 -3.5625 8.0625 C-3.60491723 5.72955225 -3.60342937 3.39547433 -3.5625 1.0625 C-2.5625 0.0625 -2.5625 0.0625 0 0 Z " fill="#F6F0F0" transform="translate(236.5625,343.9375)"/>
</svg>
