<?xml version="1.0" encoding="UTF-8"?>
<svg version="1.1" xmlns="http://www.w3.org/2000/svg" width="500" height="500">
<path d="M0 0 C2.20695525 -0.00135925 4.41391027 -0.0031421 6.62086487 -0.00531006 C12.54599793 -0.00982029 18.47111335 -0.00812205 24.39624667 -0.00493097 C30.63029953 -0.00237614 36.86435101 -0.00475333 43.09840393 -0.00631714 C54.22088793 -0.00824442 65.3433642 -0.00516469 76.46584696 -0.0000578 C86.52118054 0.00441625 96.57650257 0.00362555 106.63183594 -0.00097656 C118.36370292 -0.00634362 130.09556319 -0.00831242 141.82743126 -0.0053643 C148.01809438 -0.00381196 154.20874956 -0.00357922 160.39941216 -0.00690079 C166.21493885 -0.0098041 172.03044387 -0.00775886 177.84596825 -0.00200653 C179.97029332 -0.00069251 182.09462023 -0.00104976 184.21894455 -0.0032692 C223.00474947 -0.04003503 223.00474947 -0.04003503 236.71704102 13.12939453 C245.70623587 22.86891498 248.5597885 32.44311738 248.52563477 45.48486328 C248.53087662 46.66349442 248.53611847 47.84212555 248.54151917 49.05647278 C248.54792249 51.54341853 248.54662437 54.03039464 248.53808594 56.51733398 C248.52960674 60.28767025 248.55831459 64.05647441 248.59008789 67.82666016 C248.59170108 70.25439408 248.59112012 72.68213065 248.58813477 75.10986328 C248.59936874 76.220728 248.61060272 77.33159271 248.62217712 78.47612 C248.496251 92.89760177 243.8410512 103.78781298 234.09985352 114.27392578 C223.26298774 124.64051247 208.54006866 131.13339875 195.47875977 138.20361328 C185.17348362 143.78677561 174.99855764 149.58303884 164.88891602 155.51220703 C160.33942997 158.14277578 155.71709675 160.6349081 151.09204102 163.12939453 C149.17468851 164.16979826 147.25801588 165.21145596 145.34204102 166.25439453 C144.50157227 166.71072266 143.66110352 167.16705078 142.79516602 167.63720703 C139.54057379 169.43381719 136.31634674 171.27899248 133.09204102 173.12939453 C133.96344727 173.72365234 134.83485352 174.31791016 135.73266602 174.93017578 C148.13196178 183.50527507 158.77501691 192.35806463 167.09204102 205.12939453 C167.77008789 206.13744141 168.44813477 207.14548828 169.14672852 208.18408203 C176.55483061 219.61771886 181.77557647 231.46482579 183.09204102 245.12939453 C183.22481445 246.41330078 183.35758789 247.69720703 183.49438477 249.02001953 C186.02585881 277.4483733 177.84448667 302.03894524 160.09204102 324.12939453 C159.12331055 325.39976562 159.12331055 325.39976562 158.13500977 326.69580078 C143.82075156 343.74701084 120.54995906 353.3531482 99.09204102 357.12939453 C84.21481336 358.07786358 69.26395904 358.11514302 55.09204102 353.12939453 C54.43236328 352.89865234 53.77268555 352.66791016 53.09301758 352.43017578 C39.74710355 347.56306965 26.01663545 339.42036507 16.09204102 329.12939453 C16.09204102 328.46939453 16.09204102 327.80939453 16.09204102 327.12939453 C15.43204102 327.12939453 14.77204102 327.12939453 14.09204102 327.12939453 C14.09204102 326.46939453 14.09204102 325.80939453 14.09204102 325.12939453 C13.43204102 325.12939453 12.77204102 325.12939453 12.09204102 325.12939453 C-5.89762009 302.99688616 -14.15745271 276.86468162 -11.44604492 248.47216797 C-8.7113083 223.85953838 3.87734218 199.98590992 23.09204102 184.12939453 C26.98064038 181.28212238 31.02072436 178.68858458 35.09985352 176.12548828 C38.13396965 174.45876843 38.13396965 174.45876843 39.09204102 172.12939453 C38.30829102 171.92314453 37.52454102 171.71689453 36.71704102 171.50439453 C32.79933333 170.01836748 29.55002464 168.09503105 25.99438477 165.90283203 C22.74758077 163.91891681 19.45898246 162.01492335 16.15454102 160.12939453 C15.07301758 159.51064453 13.99149414 158.89189453 12.87719727 158.25439453 C6.16297656 154.46016526 -0.63337815 150.81258655 -7.42358398 147.15673828 C-17.77630652 141.58260932 -28.096722 135.95534331 -38.34545898 130.19189453 C-39.73716309 129.4135022 -39.73716309 129.4135022 -41.15698242 128.61938477 C-46.91842834 125.36298367 -52.44865282 121.86834592 -57.90795898 118.12939453 C-59.39295898 117.13939453 -59.39295898 117.13939453 -60.90795898 116.12939453 C-60.90795898 115.46939453 -60.90795898 114.80939453 -60.90795898 114.12939453 C-61.56795898 114.12939453 -62.22795898 114.12939453 -62.90795898 114.12939453 C-72.05798468 104.52320919 -76.13651383 92.47149848 -76.35717773 79.49658203 C-76.38978447 78.12604172 -76.38978447 78.12604172 -76.42304993 76.72781372 C-76.46679519 74.79992032 -76.50603304 72.87191996 -76.54101562 70.94384766 C-76.59491152 68.03395275 -76.66532479 65.12481078 -76.73803711 62.21533203 C-77.53982348 26.74521479 -77.53982348 26.74521479 -64.90795898 13.12939453 C-56.12903885 4.40887077 -46.68348747 0.9485644 -34.40220642 0.51248169 C-33.02805711 0.4560582 -33.02805711 0.4560582 -31.62614721 0.39849484 C-21.08575871 0.00216692 -10.54632554 -0.01109968 0 0 Z M55.09204102 35.12939453 C54.78782616 48.9415814 54.55972939 62.75324631 54.41848278 76.56809998 C54.35068247 82.9834321 54.25876195 89.3965115 54.11132812 95.81054688 C53.96988389 102.0028894 53.89231053 108.19306847 53.85863686 114.38690186 C53.83464785 116.74747795 53.78779682 119.10793773 53.71755028 121.46759033 C52.80031208 133.16836169 52.80031208 133.16836169 56.35490417 143.88482666 C59.80674887 147.03697521 63.71194723 148.55719113 68.09204102 150.12939453 C69.66698727 151.01079983 71.2278397 151.91932125 72.75610352 152.87939453 C74.07496793 153.63193806 75.39522401 154.3820493 76.71704102 155.12939453 C77.39637695 155.52255859 78.07571289 155.91572266 78.77563477 156.32080078 C82.68407837 158.56431871 82.68407837 158.56431871 87.09204102 159.12939453 C89.41491732 158.09945098 89.41491732 158.09945098 91.91625977 156.68017578 C92.86307617 156.16132813 93.80989258 155.64248047 94.78540039 155.10791016 C95.7734668 154.558125 96.7615332 154.00833984 97.77954102 153.44189453 C98.74827148 152.91144531 99.71700195 152.38099609 100.71508789 151.83447266 C103.52186781 150.28780218 106.3192588 148.7363719 109.09204102 147.12939453 C109.75057194 146.83395469 110.40910286 146.53851484 111.08758926 146.23412228 C115.44650674 144.04487796 115.44650674 144.04487796 117.83755207 139.98411274 C118.12686477 137.24465764 118.15848616 134.60165448 118.10791016 131.84716797 C118.12043823 130.81416565 118.13296631 129.78116333 118.14587402 128.71685791 C118.17765327 125.30652874 118.15287883 121.89911063 118.12719727 118.48876953 C118.13725458 116.12174868 118.15068198 113.75473993 118.16734314 111.38775635 C118.20146341 105.16043804 118.18693686 98.93411624 118.16320801 92.70678711 C118.15166472 87.60920782 118.17362267 82.51203506 118.19751835 77.41451645 C118.2465917 66.90778401 118.27393094 56.40085652 118.24072266 45.89404297 C118.24110031 44.91431519 118.24147797 43.9345874 118.24186707 42.9251709 C118.23734528 42.0391217 118.23282349 41.15307251 118.22816467 40.24017334 C118.22502306 39.07877649 118.22502306 39.07877649 118.22181797 37.89391708 C118.28326496 36.10283984 118.28326496 36.10283984 117.09204102 35.12939453 C115.15897603 35.03543396 113.22245263 35.01195936 111.28710938 35.01586914 C110.04589828 35.01594467 108.80468719 35.0160202 107.52586365 35.01609802 C106.16120362 35.02120542 104.79654399 35.02642143 103.43188477 35.03173828 C102.04325918 35.03360253 100.65463294 35.0350264 99.26600647 35.036026 C95.60482987 35.03985067 91.94369271 35.0496805 88.28253174 35.06072998 C84.54911839 35.07094521 80.81569868 35.07552386 77.08227539 35.08056641 C69.75217925 35.09130282 62.42211565 35.10837862 55.09204102 35.12939453 Z M46.09204102 209.12939453 C46.09204102 209.78939453 46.09204102 210.44939453 46.09204102 211.12939453 C45.51325195 211.37431641 44.93446289 211.61923828 44.33813477 211.87158203 C33.58641396 217.89254568 27.57583624 231.99464901 24.09204102 243.12939453 C20.64069963 261.33522035 22.6773064 280.49656461 33.09204102 296.12939453 C44.00094844 310.16910946 58.17330089 320.36121707 76.09204102 323.12939453 C92.22681806 324.82725487 107.40296126 322.18999445 121.09204102 313.12939453 C121.78297852 312.68208984 122.47391602 312.23478516 123.18579102 311.77392578 C124.87312924 310.63229417 126.49128776 309.38956199 128.09204102 308.12939453 C128.09204102 307.46939453 128.09204102 306.80939453 128.09204102 306.12939453 C128.66180664 305.89736328 129.23157227 305.66533203 129.81860352 305.42626953 C140.07109814 299.57776744 144.88330724 286.39980988 148.12329102 275.73486328 C152.68138909 257.94561941 149.098916 240.87111644 139.99438477 225.16845703 C137.725492 221.51351694 137.725492 221.51351694 135.09204102 218.12939453 C134.43204102 218.12939453 133.77204102 218.12939453 133.09204102 218.12939453 C132.82391602 217.49001953 132.55579102 216.85064453 132.27954102 216.19189453 C131.20536349 213.79807767 131.20536349 213.79807767 128.09204102 213.12939453 C128.09204102 212.46939453 128.09204102 211.80939453 128.09204102 211.12939453 C126.08151285 209.57413794 124.10174984 208.18409597 121.96704102 206.81689453 C121.34192627 206.41535156 120.71681152 206.01380859 120.07275391 205.60009766 C95.37806623 190.3159965 69.5320742 194.5417143 46.09204102 209.12939453 Z " fill="#FDFDFD" transform="translate(164.907958984375,83.87060546875)"/>
<path d="M0 0 C2.20695525 -0.00135925 4.41391027 -0.0031421 6.62086487 -0.00531006 C12.54599793 -0.00982029 18.47111335 -0.00812205 24.39624667 -0.00493097 C30.63029953 -0.00237614 36.86435101 -0.00475333 43.09840393 -0.00631714 C54.22088793 -0.00824442 65.3433642 -0.00516469 76.46584696 -0.0000578 C86.52118054 0.00441625 96.57650257 0.00362555 106.63183594 -0.00097656 C118.36370292 -0.00634362 130.09556319 -0.00831242 141.82743126 -0.0053643 C148.01809438 -0.00381196 154.20874956 -0.00357922 160.39941216 -0.00690079 C166.21493885 -0.0098041 172.03044387 -0.00775886 177.84596825 -0.00200653 C179.97029332 -0.00069251 182.09462023 -0.00104976 184.21894455 -0.0032692 C215.09061199 -0.03253306 215.09061199 -0.03253306 222.09204102 3.12939453 C222.09204102 3.45939453 222.09204102 3.78939453 222.09204102 4.12939453 C221.53857876 4.13075106 220.9851165 4.13210759 220.41488266 4.13350523 C187.60542613 4.21417163 154.79601617 4.30513293 121.98662657 4.40944614 C118.04634177 4.42196487 114.10605672 4.43439767 110.16577148 4.44677734 C109.38133828 4.44924334 108.59690508 4.45170933 107.78870118 4.45425005 C95.09062605 4.49396364 82.39254204 4.52671718 69.69444108 4.55689435 C56.66307277 4.58801862 43.63174213 4.6266322 30.60041618 4.67218459 C22.56070398 4.70005262 14.5210193 4.72209296 6.4812718 4.73665704 C0.31430113 4.74845464 -5.8525921 4.77067691 -12.0195179 4.79677773 C-14.54786249 4.80584918 -17.07622181 4.81154273 -19.60458183 4.81360817 C-23.05696697 4.81693366 -26.50909341 4.83241949 -29.96142578 4.85092163 C-30.96144245 4.8489869 -31.96145912 4.84705216 -32.99177933 4.8450588 C-40.90760185 4.90846182 -47.06967341 5.92121879 -53.90795898 10.12939453 C-55.02170898 10.39751953 -56.13545898 10.66564453 -57.28295898 10.94189453 C-61.81899225 12.42783646 -64.52233762 14.85697023 -67.90795898 18.12939453 C-64.83141737 11.00805963 -57.66932434 6.44861025 -50.90795898 3.12939453 C-45.34137317 1.22629894 -40.22098065 0.71909424 -34.40220642 0.51248169 C-33.02805711 0.4560582 -33.02805711 0.4560582 -31.62614721 0.39849484 C-21.08575871 0.00216692 -10.54632554 -0.01109968 0 0 Z " fill="#F0EBEF" transform="translate(164.907958984375,83.87060546875)"/>
<path d="M0 0 C21.78 0 43.56 0 66 0 C67.15291092 2.30582184 67.13285625 3.62732443 67.14717102 6.19306946 C67.15432632 7.07207916 67.16148163 7.95108887 67.16885376 8.85673523 C67.17154266 9.823517 67.17423157 10.79029877 67.17700195 11.78637695 C67.18357315 12.80276245 67.19014435 13.81914795 67.19691467 14.86633301 C67.21667595 18.24031644 67.22831613 21.61425533 67.23828125 24.98828125 C67.24235678 26.13862539 67.2464323 27.28896954 67.25063133 28.47417259 C67.27150341 34.5618001 67.28580063 40.64940498 67.29516602 46.73706055 C67.30623724 53.03222207 67.34064249 59.32703077 67.38033772 65.62206745 C67.40645306 70.45617847 67.41485331 75.29020475 67.41844749 80.12438011 C67.42332601 82.44524711 67.43497574 84.76611002 67.45348549 87.08690834 C67.47776986 90.33337176 67.47693125 93.57891348 67.4699707 96.82543945 C67.48278076 97.78614853 67.49559082 98.7468576 67.50878906 99.73667908 C67.47524939 104.02328742 67.38708513 106.36865947 65.10441589 110.09172058 C62.81604806 112.16680719 61.78927433 112.66053628 58.75 112.8125 C57.5125 112.874375 56.275 112.93625 55 113 C56 111 56 111 62 108 C62.33 73.02 62.66 38.04 63 2 C42.54 1.67 22.08 1.34 1 1 C1.09065095 19.94445209 1.09065095 19.94445209 1.20898438 38.88867188 C1.26337767 46.61187912 1.31448465 54.33501267 1.34643555 62.05834961 C1.37238828 68.28299707 1.4127336 74.50739811 1.46318626 80.73189354 C1.47990942 83.11017995 1.49138962 85.48850903 1.49761391 87.86684608 C1.50719573 91.19054813 1.53518428 94.5136119 1.56762695 97.8371582 C1.56619186 98.8269014 1.56475677 99.81664459 1.5632782 100.83638 C1.57581635 101.74081848 1.58835449 102.64525696 1.60127258 103.57710266 C1.60588155 104.36339208 1.61049051 105.14968149 1.61523914 105.95979786 C2.09166053 108.48603178 3.0529845 109.38496326 5 111 C3.35 110.34 1.7 109.68 0 109 C0 73.03 0 37.06 0 0 Z " fill="#8F8AA5" transform="translate(219,118)"/>
<path d="M0 0 C2.20695525 -0.00135925 4.41391027 -0.0031421 6.62086487 -0.00531006 C12.54599793 -0.00982029 18.47111335 -0.00812205 24.39624667 -0.00493097 C30.63029953 -0.00237614 36.86435101 -0.00475333 43.09840393 -0.00631714 C54.22088793 -0.00824442 65.3433642 -0.00516469 76.46584696 -0.0000578 C86.52118054 0.00441625 96.57650257 0.00362555 106.63183594 -0.00097656 C118.36370292 -0.00634362 130.09556319 -0.00831242 141.82743126 -0.0053643 C148.01809438 -0.00381196 154.20874956 -0.00357922 160.39941216 -0.00690079 C166.21493885 -0.0098041 172.03044387 -0.00775886 177.84596825 -0.00200653 C179.97029332 -0.00069251 182.09462023 -0.00104976 184.21894455 -0.0032692 C215.09061199 -0.03253306 215.09061199 -0.03253306 222.09204102 3.12939453 C222.09204102 3.45939453 222.09204102 3.78939453 222.09204102 4.12939453 C219.45204102 4.12939453 216.81204102 4.12939453 214.09204102 4.12939453 C214.09204102 3.79939453 214.09204102 3.46939453 214.09204102 3.12939453 C127.96204102 3.12939453 41.83204102 3.12939453 -46.90795898 3.12939453 C-43.91399816 1.13342065 -43.20040002 0.8636002 -39.82659817 0.71988106 C-38.59794406 0.66275359 -38.59794406 0.66275359 -37.34446865 0.60447204 C-36.01179885 0.55893682 -36.01179885 0.55893682 -34.65220642 0.51248169 C-33.71806001 0.47486603 -32.78391359 0.43725037 -31.82145971 0.39849484 C-21.21577346 0.00715057 -10.6114449 -0.01116821 0 0 Z " fill="#655683" transform="translate(164.907958984375,83.87060546875)"/>
<path d="M0 0 C0 3 0 3 -1.375 5.625 C-3.32364579 9.67218742 -4.17074545 13.60982886 -5 18 C-4.34 18 -3.68 18 -3 18 C-3 36.15 -3 54.3 -3 73 C-2.34 73.33 -1.68 73.66 -1 74 C0.28571429 80.42857143 0.28571429 80.42857143 -1 83 C-0.34 83.33 0.32 83.66 1 84 C2.6875 86.9375 2.6875 86.9375 4 90 C3.505 90.99 3.505 90.99 3 92 C-1.96433012 84.71626974 -6.98851119 75.91976005 -7.22119141 66.91845703 C-7.24436432 66.09975128 -7.26753723 65.28104553 -7.29141235 64.43753052 C-7.3112619 63.55322357 -7.33111145 62.66891663 -7.3515625 61.7578125 C-7.38629166 60.3787825 -7.38629166 60.3787825 -7.42172241 58.97189331 C-7.46937956 57.02005536 -7.51461147 55.06815692 -7.55761719 53.11621094 C-7.62396472 50.17095758 -7.70208513 47.22618309 -7.78125 44.28125 C-8.611294 10.65340086 -8.611294 10.65340086 0 0 Z " fill="#B6B4BF" transform="translate(96,102)"/>
<path d="M0 0 C-0.37047118 2.74148672 -0.68587944 4.58593199 -2.375 6.8125 C-4 8 -4 8 -7 8 C-7 8.66 -7 9.32 -7 10 C-9.47926969 11.4303479 -11.25041938 12.03505871 -14.125 12.4375 C-15.548125 12.7159375 -15.548125 12.7159375 -17 13 C-17.66 13.99 -18.32 14.98 -19 16 C-19.66 16 -20.32 16 -21 16 C-21 15.34 -21 14.68 -21 14 C-22.32 14 -23.64 14 -25 14 C-25 14.99 -25 15.98 -25 17 C-30.87883349 19.61281488 -36.70731728 19.18328202 -43 19 C-43 18.67 -43 18.34 -43 18 C-45.91555115 17.32810344 -48.83226951 16.66230692 -51.75 16 C-52.575 15.80921875 -53.4 15.6184375 -54.25 15.421875 C-55.04921875 15.24140625 -55.8484375 15.0609375 -56.671875 14.875 C-57.77160645 14.62363281 -57.77160645 14.62363281 -58.89355469 14.3671875 C-61.30039489 13.88551557 -61.30039489 13.88551557 -65 14 C-68.39914975 12.86695008 -69.05254451 11.87481525 -71 9 C-68.2826139 9.47541746 -65.76691817 10.07961231 -63.15234375 10.97265625 C-46.14605635 16.73784967 -29.35065476 15.1932204 -13.1875 7.6953125 C-9.20332865 5.58527439 -4.23983745 0 0 0 Z " fill="#D3D0DC" transform="translate(293,392)"/>
<path d="M0 0 C1.23165894 0.00141495 2.46331787 0.0028299 3.7322998 0.00428772 C7.64447516 0.00986013 11.55659211 0.02240758 15.46875 0.03515625 C18.1302075 0.04074143 20.79166444 0.04473709 23.453125 0.04882812 C29.95835307 0.05982053 36.46354736 0.07653111 42.96875 0.09765625 C42.96875 0.75765625 42.96875 1.41765625 42.96875 2.09765625 C42.30999878 2.1057431 41.65124756 2.11382996 40.97253418 2.12216187 C34.09380337 2.20846082 27.21535234 2.30797483 20.33691406 2.41503906 C17.77250887 2.45323646 15.20805179 2.48810519 12.64355469 2.51953125 C8.94968161 2.56538227 5.25616291 2.62334442 1.5625 2.68359375 C0.4226062 2.69514496 -0.7172876 2.70669617 -1.89172363 2.71859741 C-10.27471673 2.87275285 -16.78332535 3.63739493 -24.03125 8.09765625 C-25.145 8.36578125 -26.25875 8.63390625 -27.40625 8.91015625 C-31.94228326 10.39609818 -34.64562863 12.82523195 -38.03125 16.09765625 C-34.9933824 9.06584089 -27.80337774 4.24185841 -21.03125 1.09765625 C-14.03676096 -0.1257774 -7.08411374 -0.03089038 0 0 Z " fill="#EEE9EE" transform="translate(135.03125,85.90234375)"/>
<path d="M0 0 C0.8723412 2.99480917 1.10829766 5.63575911 1.0625 8.75 C1.05347656 9.54921875 1.04445312 10.3484375 1.03515625 11.171875 C1.01775391 12.07679688 1.01775391 12.07679688 1 13 C0.01 13.495 0.01 13.495 -1 14 C-2.07356857 18.2942743 -1.97296302 22.04554574 -1.5625 26.4375 C-0.85694471 34.10036632 -0.94496312 41.7314888 -1.03735352 49.42163086 C-1.08454029 55.05884729 -0.85255361 60.42509869 0 66 C-4.48312003 57.61598332 -5.60328743 48.37233454 -6 39 C-6.04125 38.12859375 -6.0825 37.2571875 -6.125 36.359375 C-6.42677838 23.7601276 -4.5801708 11.7394669 0 0 Z " fill="#9E9AB1" transform="translate(159,310)"/>
<path d="M0 0 C0 1.32 0 2.64 0 4 C-0.598125 4.226875 -1.19625 4.45375 -1.8125 4.6875 C-4.59832728 6.35899637 -5.37537232 8.2056404 -7 11 C-8.62449243 12.70779973 -10.29220027 14.37550757 -12 16 C-12.721875 16.763125 -13.44375 17.52625 -14.1875 18.3125 C-16 20 -16 20 -18 20 C-18.2475 20.61875 -18.495 21.2375 -18.75 21.875 C-20.20628639 24.35068687 -21.37812506 24.95125002 -24 26 C-24 26.99 -24 27.98 -24 29 C-24.66 29 -25.32 29 -26 29 C-25.95875 29.9075 -25.9175 30.815 -25.875 31.75 C-25.99531556 34.8782046 -26.3914708 36.38614006 -28 39 C-28.99 39 -29.98 39 -31 39 C-31.66 40.98 -32.32 42.96 -33 45 C-34.16561931 41.53637765 -34.04598623 41.10135048 -32.41015625 37.49609375 C-31.64275835 36.13457592 -30.85918806 34.78208859 -30.0625 33.4375 C-29.64790527 32.72440674 -29.23331055 32.01131348 -28.80615234 31.27661133 C-10.35094336 0 -10.35094336 0 0 0 Z " fill="#F1EEF6" transform="translate(194,265)"/>
<path d="M0 0 C2.65496351 3.98244526 3.12666024 6.64874967 3.14526367 11.32592773 C3.15483345 12.95793373 3.15483345 12.95793373 3.16459656 14.62290955 C3.16570938 15.79793533 3.1668222 16.97296112 3.16796875 18.18359375 C3.17129715 19.39064468 3.17462555 20.59769562 3.17805481 21.84132385 C3.18312102 24.395921 3.18546323 26.95052478 3.18530273 29.50512695 C3.18748924 33.41824209 3.20564858 37.33107539 3.22460938 41.24414062 C3.22754331 43.72395737 3.22952811 46.20377545 3.23046875 48.68359375 C3.23765427 49.85659531 3.24483978 51.02959686 3.25224304 52.23814392 C3.24916641 53.32930008 3.24608978 54.42045624 3.24291992 55.54467773 C3.24434494 56.50381577 3.24576996 57.4629538 3.24723816 58.45115662 C2.99079821 61.09486372 2.34576907 62.73289175 1 65 C0.23102184 56.43148741 -0.13913164 47.95657547 -0.09765625 39.35546875 C-0.0962413 38.21966873 -0.09482635 37.08386871 -0.09336853 35.91365051 C-0.08783677 32.33823852 -0.07529772 28.7628926 -0.0625 25.1875 C-0.05747616 22.74153737 -0.05291481 20.29557375 -0.04882812 17.84960938 C-0.03788983 11.8997176 -0.0212215 5.94986352 0 0 Z " fill="#B5AEC5" transform="translate(410,111)"/>
<path d="M0 0 C0.33 0 0.66 0 1 0 C3.47863004 18.81852192 3.8746579 37.01242423 -3 55 C-4 52 -4 52 -3.08618164 49.31933594 C-1.82395938 45.46202555 -1.66766221 41.90381769 -1.62109375 37.890625 C-1.60409927 37.1237738 -1.5871048 36.35692261 -1.56959534 35.5668335 C-1.5167968 33.1279717 -1.47638102 30.68912 -1.4375 28.25 C-1.37895086 25.04675435 -1.31483732 21.84366771 -1.24609375 18.640625 C-1.23017181 17.87882935 -1.21424988 17.11703369 -1.19784546 16.33215332 C-1.06541354 10.84648213 -0.66742802 5.44974283 0 0 Z " fill="#A6A0B0" transform="translate(346,322)"/>
<path d="M0 0 C0.33 0 0.66 0 1 0 C1.0231306 13.52537105 1.04091877 27.05073742 1.05181217 40.57612419 C1.05703942 46.85593233 1.06413422 53.13572697 1.07543945 59.41552734 C1.08627391 65.47145852 1.09227803 71.52737669 1.09487724 77.5833168 C1.09673048 79.89826792 1.10034916 82.2132183 1.10573006 84.52816391 C1.11294787 87.76081656 1.11399062 90.99341486 1.11352539 94.22607422 C1.11712067 95.19136047 1.12071594 96.15664673 1.12442017 97.15118408 C1.1230455 98.02900543 1.12167084 98.90682678 1.12025452 99.81124878 C1.12117631 100.57633696 1.1220981 101.34142513 1.12304783 102.1296978 C1 104 1 104 0 106 C-2.64860427 106.59355614 -5.29197322 106.74209269 -8 107 C-7 105 -7 105 -1 102 C-0.67 68.34 -0.34 34.68 0 0 Z " fill="#2C2C55" transform="translate(282,124)"/>
<path d="M0 0 C1.21613353 3.64840059 0.6586565 4.34422488 -0.875 7.75 C-4.0752826 14.86671236 -4.19333658 22.01531347 -4.1875 29.6875 C-4.18814453 30.56438477 -4.18878906 31.44126953 -4.18945312 32.34472656 C-4.13518453 39.04196449 -3.4896193 45.45631522 -2 52 C-3.485 52.495 -3.485 52.495 -5 53 C-5.07347656 52.09507812 -5.07347656 52.09507812 -5.1484375 51.171875 C-5.22320312 50.37265625 -5.29796875 49.5734375 -5.375 48.75 C-5.44460937 47.96109375 -5.51421875 47.1721875 -5.5859375 46.359375 C-5.85335788 44.00820694 -5.85335788 44.00820694 -7.046875 42.25390625 C-8.5805964 38.62703229 -8.1092411 35.06553419 -7.875 31.1875 C-7.82714355 30.34743408 -7.77928711 29.50736816 -7.72998047 28.6418457 C-7.00999531 18.49965477 -4.787152 9.0408785 0 0 Z " fill="#7F778F" transform="translate(193,314)"/>
<path d="M0 0 C0.33 1.65 0.66 3.3 1 5 C1.598125 4.773125 2.19625 4.54625 2.8125 4.3125 C3.8953125 4.1578125 3.8953125 4.1578125 5 4 C6.625 5.375 6.625 5.375 8 7 C8.66 7.33 9.32 7.66 10 8 C10 8.66 10 9.32 10 10 C10.763125 10.20625 11.52625 10.4125 12.3125 10.625 C15.93827854 12.48004948 16.57630761 14.22721516 18 18 C18.6875 21.875 18.6875 21.875 19 25 C16.72494996 22.83328568 14.76424908 20.60436769 13 18 C13 17.34 13 16.68 13 16 C12.34 16 11.68 16 11 16 C8.375 13.625 8.375 13.625 6 11 C6 10.34 6 9.68 6 9 C5.42765625 8.72414063 4.8553125 8.44828125 4.265625 8.1640625 C2.01035733 7.00532152 -0.10856378 5.73124294 -2.25 4.375 C-2.95640625 3.92898438 -3.6628125 3.48296875 -4.390625 3.0234375 C-4.92171875 2.68570312 -5.4528125 2.34796875 -6 2 C-3 0 -3 0 0 0 Z " fill="#B9B5CE" transform="translate(287,286)"/>
<path d="M0 0 C2.25 2.625 2.25 2.625 4 5 C3.40574219 4.81824219 2.81148438 4.63648438 2.19921875 4.44921875 C0.43224839 3.91335682 -1.33757281 3.38685015 -3.109375 2.8671875 C-4.92210594 2.32336822 -6.72640348 1.74959383 -8.515625 1.1328125 C-19.94873421 -2.54963065 -32.18710253 -2.1747559 -43.58203125 1.44140625 C-46.15609155 2.03605992 -47.53668527 1.86704085 -50 1 C-49.01 0.34 -48.02 -0.32 -47 -1 C-47 -1.33 -47 -1.66 -47 -2 C-9.9570406 -6.14053039 -9.9570406 -6.14053039 0 0 Z " fill="#817C97" transform="translate(277,282)"/>
<path d="M0 0 C0.33 0 0.66 0 1 0 C1.05437607 1.58294782 1.09296271 3.16644256 1.125 4.75 C1.14820313 5.63171875 1.17140625 6.5134375 1.1953125 7.421875 C0.99139502 10.1135858 0.36551721 11.69904974 -1 14 C-1.66 14 -2.32 14 -3 14 C-3 14.99 -3 15.98 -3 17 C-3.66 17 -4.32 17 -5 17 C-4.67 17.99 -4.34 18.98 -4 20 C-5.58093054 21.12837409 -7.16484716 22.25256518 -8.75 23.375 C-9.63171875 24.00148438 -10.5134375 24.62796875 -11.421875 25.2734375 C-13.57414979 26.71480941 -15.65460523 27.91498093 -18 29 C-18 28.34 -18 27.68 -18 27 C-17.319375 26.484375 -16.63875 25.96875 -15.9375 25.4375 C-7.60440728 18.52280604 -3.82921668 9.86058361 0 0 Z " fill="#A7A1B6" transform="translate(311,363)"/>
<path d="M0 0 C0 0.66 0 1.32 0 2 C-1.65002828 3.35386936 -3.3174387 4.68678142 -5 6 C-5.33 6.66 -5.66 7.32 -6 8 C-7.32 8 -8.64 8 -10 8 C-10 8.66 -10 9.32 -10 10 C-13.54825778 12.12895467 -16.93337513 12.49167189 -21 13 C-21.65484375 13.22429687 -22.3096875 13.44859375 -22.984375 13.6796875 C-25 14 -25 14 -26.921875 13.00390625 C-27.52515625 12.52824219 -28.1284375 12.05257812 -28.75 11.5625 C-29.67039063 10.85287109 -29.67039063 10.85287109 -30.609375 10.12890625 C-31.06828125 9.75636719 -31.5271875 9.38382813 -32 9 C-31.34 8.67 -30.68 8.34 -30 8 C-28.948125 8.7115625 -27.89625 9.423125 -26.8125 10.15625 C-24.9765365 11.33815566 -24.9765365 11.33815566 -23 12 C-20.12979111 11.00055226 -18.42693671 10.16851899 -16 8.5 C-14.25 7.390625 -14.25 7.390625 -12.5 6.28125 C-11.92894531 5.90613281 -11.35789062 5.53101563 -10.76953125 5.14453125 C-2.81569966 0 -2.81569966 0 0 0 Z " fill="#9C97AA" transform="translate(274,231)"/>
<path d="M0 0 C0.99 0.33 1.98 0.66 3 1 C3.13277344 1.95261719 3.26554687 2.90523438 3.40234375 3.88671875 C3.57894531 5.14097656 3.75554687 6.39523437 3.9375 7.6875 C4.11152344 8.92886719 4.28554688 10.17023438 4.46484375 11.44921875 C4.89822897 14.32474548 5.39649282 17.15644813 6 20 C6.33 20 6.66 20 7 20 C7.28320012 27.78800331 6.23186583 34.84372567 3 42 C2.34 42 1.68 42 1 42 C1.144375 41.18917969 1.28875 40.37835938 1.4375 39.54296875 C3.384905 27.92615696 3.42934866 18.5567919 0.65625 7.06640625 C0 4 0 4 0 0 Z " fill="#E7E5F4" transform="translate(311,321)"/>
<path d="M0 0 C0.99 0 1.98 0 3 0 C-0.2461057 9.46496084 -8.33782211 16.88278441 -16 23 C-16.66 22.67 -17.32 22.34 -18 22 C-17.525625 21.21625 -17.05125 20.4325 -16.5625 19.625 C-15.66101977 18.11051322 -14.78820515 16.5764103 -14 15 C-13.34 15 -12.68 15 -12 15 C-11.69707031 14.37351562 -11.39414062 13.74703125 -11.08203125 13.1015625 C-7.58912756 6.28771346 -7.58912756 6.28771346 -4.3125 4.6875 C-3.549375 4.460625 -2.78625 4.23375 -2 4 C-0.65589738 1.98264795 -0.65589738 1.98264795 0 0 Z " fill="#A79AB7" transform="translate(329,397)"/>
<path d="M0 0 C1.60332791 -0.08121924 3.20784026 -0.13929134 4.8125 -0.1875 C6.15248047 -0.23970703 6.15248047 -0.23970703 7.51953125 -0.29296875 C10.53663361 0.06338192 10.95341957 0.87510654 13 3 C24.93707095 7.34412846 38.47991995 6.72071303 51 7 C51 7.33 51 7.66 51 8 C32.88385399 8.52063645 16.77540589 8.50591879 0 1 C0 0.67 0 0.34 0 0 Z " fill="#504964" transform="translate(213,433)"/>
<path d="M0 0 C-2 2 -2 2 -4.8125 2.4375 C-8.24046655 3.04243527 -10.05737159 4.20571438 -13 6 C-14.670625 6.4021875 -14.670625 6.4021875 -16.375 6.8125 C-20.91103326 8.29844193 -23.61437863 10.7275757 -27 14 C-24.85787084 9.04156904 -21.160967 6.28617503 -17 3 C-16.42894531 2.54625 -15.85789062 2.0925 -15.26953125 1.625 C-10.21146775 -1.83514795 -5.69864509 -1.05487998 0 0 Z " fill="#BCB8C9" transform="translate(124,88)"/>
<path d="M0 0 C0 3.25811062 -0.5522078 5.10441559 -2 8 C-2.99 8.33 -3.98 8.66 -5 9 C-5 9.99 -5 10.98 -5 12 C-5.66 12 -6.32 12 -7 12 C-6.95875 12.9075 -6.9175 13.815 -6.875 14.75 C-6.99531556 17.8782046 -7.3914708 19.38614006 -9 22 C-9.99 22 -10.98 22 -12 22 C-12.66 23.98 -13.32 25.96 -14 28 C-15.19957231 24.47452828 -15.03434355 24.07466692 -13.33984375 20.390625 C-12.55322459 19.00229652 -11.75163388 17.62237447 -10.9375 16.25 C-10.5257251 15.53714844 -10.1139502 14.82429688 -9.68969727 14.08984375 C-6.77598594 9.1179581 -3.63780595 4.47729963 0 0 Z " fill="#9E9CB4" transform="translate(175,282)"/>
<path d="M0 0 C0.95390625 -0.01417969 1.9078125 -0.02835937 2.890625 -0.04296875 C5.87699459 0.1977359 8.04370741 0.938062 10.75 2.1875 C10.75 2.5175 10.75 2.8475 10.75 3.1875 C-2.615 3.6825 -2.615 3.6825 -16.25 4.1875 C-15.92 3.5275 -15.59 2.8675 -15.25 2.1875 C-13.21875 1.80859375 -13.21875 1.80859375 -10.75 1.625 C-6.7070192 1.31154105 -4.1415717 0.0276843 0 0 Z " fill="#F0EDF6" transform="translate(250.25,275.8125)"/>
<path d="M0 0 C1.98 0 3.96 0 6 0 C3.5384091 4.9231818 -4.74384122 7.53160181 -9.6875 9.375 C-10.450625 9.58125 -11.21375 9.7875 -12 10 C-12.33 8.68 -12.66 7.36 -13 6 C-4.738041 1.59225513 -4.738041 1.59225513 0 1 C0 0.67 0 0.34 0 0 Z " fill="#A6A2BA" transform="translate(349,224)"/>
<path d="M0 0 C-2.78748519 1.67373751 -5.58064427 3.33776267 -8.375 5 C-9.1690625 5.47695312 -9.963125 5.95390625 -10.78125 6.4453125 C-11.92207031 7.12207031 -11.92207031 7.12207031 -13.0859375 7.8125 C-13.7876709 8.23144531 -14.4894043 8.65039062 -15.21240234 9.08203125 C-17 10 -17 10 -19 10 C-18.42655063 7.13275314 -18.1385485 6.1385485 -16 4 C-3.63636364 -1.81818182 -3.63636364 -1.81818182 0 0 Z " fill="#A6A0B5" transform="translate(324,242)"/>
<path d="M0 0 C0.33 0 0.66 0 1 0 C1.02467759 5.37515933 1.04284928 10.75028585 1.05493164 16.12548828 C1.05996737 17.95492121 1.06679627 19.78435009 1.07543945 21.61376953 C1.08753824 24.23991898 1.09323583 26.86601532 1.09765625 29.4921875 C1.10281754 30.31306854 1.10797882 31.13394958 1.11329651 31.97970581 C1.11387171 37.77225659 1.11387171 37.77225659 0 40 C-2.64860427 40.59355614 -5.29197322 40.74209269 -8 41 C-7 39 -7 39 -1 36 C-0.67 24.12 -0.34 12.24 0 0 Z " fill="#40384F" transform="translate(282,190)"/>
<path d="M0 0 C6.17755225 5.38697264 9.65707173 15.28211863 12 23 C11.56640625 25.21875 11.56640625 25.21875 11 27 C10.3291288 25.3767313 9.66342971 23.75132422 9 22.125 C8.62875 21.22007812 8.2575 20.31515625 7.875 19.3828125 C7 17 7 17 7 15 C6.01 14.67 5.02 14.34 4 14 C3.67 11.36 3.34 8.72 3 6 C2.01 5.67 1.02 5.34 0 5 C0 3.35 0 1.7 0 0 Z " fill="#89829B" transform="translate(334,294)"/>
<path d="M0 0 C3.83180095 0.67744547 7.37171613 1.78020266 11.0625 3 C20.24609083 5.69933021 29.48261156 5.80850325 39 6 C39 6.33 39 6.66 39 7 C35.54183314 7.08847317 32.08396421 7.14087725 28.625 7.1875 C27.65949219 7.21263672 26.69398438 7.23777344 25.69921875 7.26367188 C19.73440941 7.32372029 14.79933744 6.65533335 9.16943359 4.6496582 C6.73879072 3.80875126 6.73879072 3.80875126 3 4 C1.25 2 1.25 2 0 0 Z " fill="#6F6580" transform="translate(222,401)"/>
<path d="M0 0 C5.32021739 -0.04953293 10.64029976 -0.08578256 15.96069336 -0.10986328 C17.76963643 -0.11990487 19.57856333 -0.1335408 21.38745117 -0.15087891 C23.99141435 -0.17520832 26.59516242 -0.18650161 29.19921875 -0.1953125 C30.00461594 -0.20563507 30.81001312 -0.21595764 31.63981628 -0.22659302 C35.88969226 -0.22743729 39.12067443 0.03483771 43 2 C43 2.33 43 2.66 43 3 C40.36 3 37.72 3 35 3 C35 2.67 35 2.34 35 2 C23.45 1.67 11.9 1.34 0 1 C0 0.67 0 0.34 0 0 Z " fill="#A398AA" transform="translate(344,85)"/>
<path d="M0 0 C3.40312738 1.05875074 6.01353231 2.00902154 9 4 C9.1875 7.125 9.1875 7.125 9 10 C7.35 10 5.7 10 4 10 C4 10.66 4 11.32 4 12 C1.69 12.33 -0.62 12.66 -3 13 C-0.23129521 10.02620597 2.52259072 8.06764876 6 6 C6.33 5.34 6.66 4.68 7 4 C6.030625 3.71125 5.06125 3.4225 4.0625 3.125 C1 2 1 2 0 0 Z " fill="#918DA4" transform="translate(197,252)"/>
<path d="M0 0 C1.32 0.33 2.64 0.66 4 1 C4 1.66 4 2.32 4 3 C2.390625 4.5859375 2.390625 4.5859375 0.25 6.375 C-2.6243732 8.81617866 -5.38543992 11.27649992 -8 14 C-8.33 12.68 -8.66 11.36 -9 10 C-8.01 10 -7.02 10 -6 10 C-5.9071875 8.824375 -5.9071875 8.824375 -5.8125 7.625 C-5.544375 6.75875 -5.27625 5.8925 -5 5 C-2.4375 3.6875 -2.4375 3.6875 0 3 C0 2.01 0 1.02 0 0 Z " fill="#B0ABBB" transform="translate(207,292)"/>
<path d="M0 0 C5.25487456 1.5071342 8.47940694 4.93007198 12.3125 8.625 C12.95767578 9.23601562 13.60285156 9.84703125 14.26757812 10.4765625 C15.8512345 11.97810336 17.42833341 13.48593043 19 15 C18.67 15.66 18.34 16.32 18 17 C17.44570313 16.43410156 16.89140625 15.86820312 16.3203125 15.28515625 C15.59585937 14.55167969 14.87140625 13.81820313 14.125 13.0625 C13.40570313 12.33160156 12.68640625 11.60070312 11.9453125 10.84765625 C10.12972808 8.94332001 10.12972808 8.94332001 8 8 C7.67 8.66 7.34 9.32 7 10 C6.67 9.01 6.34 8.02 6 7 C5.01 6.67 4.02 6.34 3 6 C3.66 5.67 4.32 5.34 5 5 C2.525 4.01 2.525 4.01 0 3 C0 2.01 0 1.02 0 0 Z " fill="#837B9D" transform="translate(305,263)"/>
<path d="M0 0 C0.66 0.33 1.32 0.66 2 1 C3.28571429 7.42857143 3.28571429 7.42857143 2 10 C2.66 10.33 3.32 10.66 4 11 C5.6875 13.9375 5.6875 13.9375 7 17 C6.67 17.66 6.34 18.32 6 19 C-2.14263509 6.3193746 -2.14263509 6.3193746 -1.75 2.6875 C-1 1 -1 1 0 0 Z " fill="#9691AA" transform="translate(93,175)"/>
<path d="M0 0 C1.41623216 -0.05447047 2.83308191 -0.09300508 4.25 -0.125 C5.03890625 -0.14820313 5.8278125 -0.17140625 6.640625 -0.1953125 C10.75077524 0.14493173 12.58738995 1.51862161 15.25 4.625 C16.11625 5.800625 16.11625 5.800625 17 7 C11.14340094 5.33846988 5.5409866 3.52958084 0 1 C0 0.67 0 0.34 0 0 Z " fill="#A5A3B4" transform="translate(264,280)"/>
<path d="M0 0 C1.98 0 3.96 0 6 0 C6.33 1.32 6.66 2.64 7 4 C7.68707031 4.10957031 8.37414062 4.21914062 9.08203125 4.33203125 C9.98308594 4.49058594 10.88414062 4.64914063 11.8125 4.8125 C12.70582031 4.96332031 13.59914062 5.11414063 14.51953125 5.26953125 C17.18321256 6.05395393 18.25690322 6.88627799 20 9 C19.67 9.66 19.34 10.32 19 11 C14.60616294 9.40376856 10.71004193 7.21975667 6.6875 4.875 C6.04232422 4.50246094 5.39714844 4.12992188 4.73242188 3.74609375 C3.15324055 2.83367787 1.57638136 1.91724491 0 1 C0 0.67 0 0.34 0 0 Z " fill="#7C7993" transform="translate(165,234)"/>
<path d="M0 0 C-8.75 7 -8.75 7 -13 7 C-13.33 6.01 -13.66 5.02 -14 4 C-13.34 4 -12.68 4 -12 4 C-12 3.34 -12 2.68 -12 2 C-4.71428571 -1.57142857 -4.71428571 -1.57142857 0 0 Z " fill="#C7C2D0" transform="translate(368,217)"/>
<path d="M0 0 C0.8723412 2.99480917 1.10829766 5.63575911 1.0625 8.75 C1.05347656 9.54921875 1.04445312 10.3484375 1.03515625 11.171875 C1.01775391 12.07679688 1.01775391 12.07679688 1 13 C0.01 13.495 0.01 13.495 -1 14 C-1.35015049 15.66321482 -1.68197057 17.33034549 -2 19 C-2.66 19.99 -3.32 20.98 -4 22 C-3.67942955 14.12944269 -3.3161515 7.209025 0 0 Z " fill="#A9A5BC" transform="translate(159,310)"/>
<path d="M0 0 C0.99 0.33 1.98 0.66 3 1 C4.53140195 10.12004552 5.27675737 18.74400342 5 28 C4.67 28 4.34 28 4 28 C2.66666667 18.66666667 1.33333333 9.33333333 0 0 Z " fill="#807896" transform="translate(311,321)"/>
<path d="M0 0 C0.70125 0.7425 1.4025 1.485 2.125 2.25 C4.89154871 5.08109249 4.89154871 5.08109249 8.1875 7 C11.30288527 9.21538508 11.90245877 10.432991 13 14 C13.99 15.485 13.99 15.485 15 17 C13.0625 16.1875 13.0625 16.1875 11 15 C10.67 14.01 10.34 13.02 10 12 C9.34 12 8.68 12 8 12 C8 11.34 8 10.68 8 10 C7.34 10 6.68 10 6 10 C4.4921875 8.3203125 4.4921875 8.3203125 2.875 6.125 C2.33617187 5.40570313 1.79734375 4.68640625 1.2421875 3.9453125 C0 2 0 2 0 0 Z " fill="#6C6987" transform="translate(171,399)"/>
<path d="M0 0 C0.33 1.65 0.66 3.3 1 5 C2.32 4.67 3.64 4.34 5 4 C5.99 6.31 6.98 8.62 8 11 C7.34 11 6.68 11 6 11 C6 10.34 6 9.68 6 9 C5.42765625 8.72414063 4.8553125 8.44828125 4.265625 8.1640625 C2.01035733 7.00532152 -0.10856378 5.73124294 -2.25 4.375 C-2.95640625 3.92898438 -3.6628125 3.48296875 -4.390625 3.0234375 C-4.92171875 2.68570312 -5.4528125 2.34796875 -6 2 C-3 0 -3 0 0 0 Z " fill="#9794B4" transform="translate(287,286)"/>
<path d="M0 0 C2 1 2 1 2 1 Z M-1 1 C0.98 1 2.96 1 5 1 C2.42639878 3.9667903 -0.51704221 5.49144778 -4 7.25 C-5.5778125 8.06210937 -5.5778125 8.06210937 -7.1875 8.890625 C-10 10 -10 10 -13 9 C-12.401875 8.731875 -11.80375 8.46375 -11.1875 8.1875 C-9.02775192 7.01506533 -7.64209744 5.80630718 -6 4 C-5.01 4.33 -4.02 4.66 -3 5 C-2.34 3.68 -1.68 2.36 -1 1 Z " fill="#A198B1" transform="translate(297,425)"/>
<path d="M0 0 C0.66 0 1.32 0 2 0 C2.68300788 5.37868704 3 10.57269492 3 16 C3.26519956 18.68040981 3.62549379 21.33164325 4 24 C0.875 17.75 0.875 17.75 0.68359375 13.8671875 C0.62075195 12.65869141 0.62075195 12.65869141 0.55664062 11.42578125 C0.51732422 10.58402344 0.47800781 9.74226563 0.4375 8.875 C0.39431641 8.02550781 0.35113281 7.17601562 0.30664062 6.30078125 C0.20045764 4.20071777 0.09971503 2.10038052 0 0 Z " fill="#A9A4BA" transform="translate(155,352)"/>
<path d="M0 0 C-1.50675727 3.01351454 -3.88652434 3.60409521 -6.875 5.0625 C-8.47988281 5.85333984 -8.47988281 5.85333984 -10.1171875 6.66015625 C-13 8 -13 8 -16 9 C-16 8.01 -16 7.02 -16 6 C-14.02 5.67 -12.04 5.34 -10 5 C-10.33 4.01 -10.66 3.02 -11 2 C-7.36576791 -0.32590854 -4.22911669 -0.16265833 0 0 Z " fill="#9794A8" transform="translate(227,284)"/>
<path d="M0 0 C0 4.144163 -0.88134668 7.60168334 -3.5 10.875 C-5 12 -5 12 -7 12 C-7.33 12.66 -7.66 13.32 -8 14 C-8 10.01016611 -7.22014012 7.37590268 -4.53125 4.34375 C-3.05175326 2.86425326 -1.5284993 1.42881457 0 0 Z " fill="#B8B2C4" transform="translate(183,273)"/>
<path d="M0 0 C2.125 0.375 2.125 0.375 4 1 C3.21625 1.598125 2.4325 2.19625 1.625 2.8125 C-1.14574323 4.91085249 -1.14574323 4.91085249 -3 8 C-3.98095748 9.01868662 -4.97702078 10.02351983 -6 11 C-6.99 10.67 -7.98 10.34 -9 10 C-7.8758824 8.70756532 -6.75067408 7.41607925 -5.625 6.125 C-4.99851562 5.40570313 -4.37203125 4.68640625 -3.7265625 3.9453125 C-2.52573166 2.5923402 -1.2791655 1.2791655 0 0 Z " fill="#F0EDF8" transform="translate(105,94)"/>
<path d="M0 0 C0.80867674 2.33733665 1.12401827 3.61044569 0.36328125 6 C-1.69017299 9.90843335 -3.59298057 13.07969763 -7 16 C-7 12 -7 12 -6 11 C-6.33 10.34 -6.66 9.68 -7 9 C-6.67 8.34 -6.34 7.68 -6 7 C-5.01 7 -4.02 7 -3 7 C-2.01 4.69 -1.02 2.38 0 0 Z " fill="#9C93A7" transform="translate(410,176)"/>
<path d="M0 0 C1.60332791 -0.08121924 3.20784026 -0.13929134 4.8125 -0.1875 C6.15248047 -0.23970703 6.15248047 -0.23970703 7.51953125 -0.29296875 C10.47638733 0.05626622 11.08932515 0.82271936 13 3 C15.60611077 3.72197162 15.60611077 3.72197162 18 4 C18 4.33 18 4.66 18 5 C11.33499135 5.59244521 6.13047025 3.48322845 0 1 C0 0.67 0 0.34 0 0 Z " fill="#9B98B1" transform="translate(213,433)"/>
<path d="M0 0 C0.99 0 1.98 0 3 0 C1.65463623 4.4030087 -0.16052312 6.471564 -4 9 C-4.99 9 -5.98 9 -7 9 C-7 9.99 -7 10.98 -7 12 C-7.66 12 -8.32 12 -9 12 C-8.3125 9.125 -8.3125 9.125 -7 6 C-4.5 4.875 -4.5 4.875 -2 4 C-0.65589738 1.98264795 -0.65589738 1.98264795 0 0 Z " fill="#C5C0CC" transform="translate(329,397)"/>
<path d="M0 0 C4.97209562 1.76429199 9.43438061 4.3939166 14 7 C13.01 7.495 13.01 7.495 12 8 C10.31165408 7.39031953 8.64797236 6.71162443 7 6 C5.948125 5.649375 4.89625 5.29875 3.8125 4.9375 C1 4 1 4 -1 3 C-0.67 2.01 -0.34 1.02 0 0 Z " fill="#9A91AA" transform="translate(224,229)"/>
<path d="M0 0 C0 3.25811062 -0.5522078 5.10441559 -2 8 C-2.99 8.33 -3.98 8.66 -5 9 C-5 9.99 -5 10.98 -5 12 C-5.66 12 -6.32 12 -7 12 C-7 12.99 -7 13.98 -7 15 C-7.66 15 -8.32 15 -9 15 C-7.58399311 8.86397012 -3.9336625 4.73301638 0 0 Z " fill="#948EA7" transform="translate(175,282)"/>
<path d="M0 0 C3.59930552 2.62652025 6.07666989 4.93963643 8 9 C7.67 9.66 7.34 10.32 7 11 C6.01 10.34 5.02 9.68 4 9 C4 8.34 4 7.68 4 7 C2.68 6.34 1.36 5.68 0 5 C0 3.35 0 1.7 0 0 Z " fill="#A6A1B3" transform="translate(324,280)"/>
<path d="M0 0 C-2.39387157 0.67449966 -4.78969221 1.33976641 -7.1875 2 C-8.19780273 2.28617187 -8.19780273 2.28617187 -9.22851562 2.578125 C-12.90555156 3.5825836 -16.1850182 4.23704741 -20 4 C-17.37004222 0.59322195 -14.70531902 0.33309825 -10.5625 -0.25 C-9.42941406 -0.42015625 -8.29632813 -0.5903125 -7.12890625 -0.765625 C-4.36747944 -0.97247345 -2.58449574 -0.88901573 0 0 Z " fill="#7E7B8D" transform="translate(284,436)"/>
<path d="M0 0 C0.99 0.33 1.98 0.66 3 1 C3 1.66 3 2.32 3 3 C3.99 3.66 4.98 4.32 6 5 C6.73046875 7.1640625 6.73046875 7.1640625 7.1875 9.625 C7.34605469 10.44226563 7.50460938 11.25953125 7.66796875 12.1015625 C7.83232422 13.04128906 7.83232422 13.04128906 8 14 C5.50447597 11.72402354 3.93377014 9.39278822 2.3125 6.4375 C1.87550781 5.65246094 1.43851563 4.86742187 0.98828125 4.05859375 C0 2 0 2 0 0 Z " fill="#8B859F" transform="translate(163,385)"/>
<path d="M0 0 C0 3 0 3 -1.53125 4.82421875 C-2.1809375 5.43910156 -2.830625 6.05398437 -3.5 6.6875 C-4.1496875 7.31011719 -4.799375 7.93273437 -5.46875 8.57421875 C-5.9740625 9.04472656 -6.479375 9.51523438 -7 10 C-7.66 9.67 -8.32 9.34 -9 9 C-8.67 8.01 -8.34 7.02 -8 6 C-7.34 6 -6.68 6 -6 6 C-5.938125 5.38125 -5.87625 4.7625 -5.8125 4.125 C-5 2 -5 2 -2.4375 0.75 C-1.633125 0.5025 -0.82875 0.255 0 0 Z " fill="#ABA4B4" transform="translate(402,192)"/>
<path d="M0 0 C0.33 0.99 0.66 1.98 1 3 C2.32796291 3.35412344 3.66216607 3.68521554 5 4 C6.75 5.5625 6.75 5.5625 8 7 C7.34 8.32 6.68 9.64 6 11 C3.69 8.03 1.38 5.06 -1 2 C-0.67 1.34 -0.34 0.68 0 0 Z " fill="#EAE7F4" transform="translate(171,395)"/>
<path d="M0 0 C0.66 0 1.32 0 2 0 C2.185625 1.5778125 2.185625 1.5778125 2.375 3.1875 C2.83631038 6.89272158 2.83631038 6.89272158 4.125 9.75 C5 12 5 12 4 15 C3.34 15 2.68 15 2 15 C1.66048381 13.43883181 1.32867456 11.87598662 1 10.3125 C0.814375 9.44238281 0.62875 8.57226562 0.4375 7.67578125 C0.01027953 5.06287036 -0.07616201 2.64186962 0 0 Z " fill="#EBEAF5" transform="translate(314,327)"/>
<path d="M0 0 C1.3921875 0.0928125 1.3921875 0.0928125 2.8125 0.1875 C-0.37233911 2.82636669 -3.4773821 5.33244105 -7.1875 7.1875 C-8.1775 6.8575 -9.1675 6.5275 -10.1875 6.1875 C-10.5175 5.5275 -10.8475 4.8675 -11.1875 4.1875 C-10.424375 4.084375 -9.66125 3.98125 -8.875 3.875 C-6.15770993 3.44005235 -6.15770993 3.44005235 -4.75 1.625 C-3.1875 0.1875 -3.1875 0.1875 0 0 Z " fill="#9892AD" transform="translate(334.1875,233.8125)"/>
<path d="M0 0 C0.33 0.99 0.66 1.98 1 3 C-0.98 3.99 -0.98 3.99 -3 5 C-3 4.34 -3 3.68 -3 3 C-6.63 3.33 -10.26 3.66 -14 4 C-9.42715431 1.71357715 -5.15703284 0 0 0 Z " fill="#8C8A9D" transform="translate(275,403)"/>
<path d="M0 0 C2.86867231 1.38264837 5.56024032 2.92148553 8.25 4.625 C8.95640625 5.07101562 9.6628125 5.51703125 10.390625 5.9765625 C10.92171875 6.31429688 11.4528125 6.65203125 12 7 C10.02 7.99 10.02 7.99 8 9 C7.6596875 8.0409375 7.6596875 8.0409375 7.3125 7.0625 C6.14749104 4.72806339 6.14749104 4.72806339 3.375 4.25 C2.59125 4.1675 1.8075 4.085 1 4 C0.67 2.68 0.34 1.36 0 0 Z " fill="#8F8BA1" transform="translate(210,393)"/>
<path d="M0 0 C6.36363636 -0.48951049 6.36363636 -0.48951049 9.4375 1.875 C11 4 11 4 11 6 C6.95743617 4.77782954 3.50711041 3.37245704 0 1 C0 0.67 0 0.34 0 0 Z " fill="#9B98B5" transform="translate(154,228)"/>
<path d="M0 0 C0.99 0.33 1.98 0.66 3 1 C0.25604436 3.94721162 -2.38337216 6.19168608 -6 8 C-6.66 7.67 -7.32 7.34 -8 7 C-7 4 -7 4 -4 2 C-2.68 2 -1.36 2 0 2 C0 1.34 0 0.68 0 0 Z " fill="#B7B2C4" transform="translate(390,201)"/>
<path d="M0 0 C3.375 -0.1875 3.375 -0.1875 7 0 C7.66 0.99 8.32 1.98 9 3 C9.99 3.33 10.98 3.66 12 4 C12.33 4.99 12.66 5.98 13 7 C8.1725201 5.58707905 4.2837641 3.57025846 0 1 C0 0.67 0 0.34 0 0 Z " fill="#918DA2" transform="translate(134,217)"/>
<path d="M0 0 C0.33 0 0.66 0 1 0 C1.36263859 5.8022175 0.25684543 9.63999211 -2 15 C-2.33 15 -2.66 15 -3 15 C-2.8858134 13.06183265 -2.75826577 11.12444901 -2.625 9.1875 C-2.55539062 8.10855469 -2.48578125 7.02960938 -2.4140625 5.91796875 C-2 3 -2 3 0 0 Z " fill="#EAE5EF" transform="translate(410,169)"/>
<path d="M0 0 C4.2742558 1.5830577 6.26531794 4.50568404 9 8 C5 8 5 8 3.25 6.625 C2 5 2 5 2 3 C1.34 3 0.68 3 0 3 C0 2.01 0 1.02 0 0 Z " fill="#F2EEFA" transform="translate(313,271)"/>
<path d="M0 0 C1.98 0 3.96 0 6 0 C4.52436775 2.9512645 2.49920648 3.06923915 -0.5625 4.125 C-1.57441406 4.47820312 -2.58632813 4.83140625 -3.62890625 5.1953125 C-4.41136719 5.46085938 -5.19382812 5.72640625 -6 6 C-5.67 4.68 -5.34 3.36 -5 2 C-3.35 1.67 -1.7 1.34 0 1 C0 0.67 0 0.34 0 0 Z " fill="#BAB3C5" transform="translate(349,224)"/>
<path d="M0 0 C1.65 0 3.3 0 5 0 C5 0.66 5 1.32 5 2 C6.65 1.67 8.3 1.34 10 1 C10.33 2.65 10.66 4.3 11 6 C6.49197399 4.74194623 3.5087188 3.09592835 0 0 Z " fill="#9894A8" transform="translate(116,207)"/>
<path d="M0 0 C5.01113235 1.4317521 6.94469549 3.98445693 10 8 C8.68 8.33 7.36 8.66 6 9 C6 8.34 6 7.68 6 7 C5.34 7 4.68 7 4 7 C3.67 5.68 3.34 4.36 3 3 C2.01 3 1.02 3 0 3 C0 2.01 0 1.02 0 0 Z " fill="#A29DBA" transform="translate(391,90)"/>
<path d="M0 0 C-5.14285714 5.57142857 -5.14285714 5.57142857 -9 6 C-8.6875 4.125 -8.6875 4.125 -8 2 C-4.77208445 -0.1519437 -3.71599191 -0.20086443 0 0 Z " fill="#A8A4B6" transform="translate(311,420)"/>
<path d="M0 0 C0 0.99 0 1.98 0 3 C-2.97 3.66 -5.94 4.32 -9 5 C-9 4.01 -9 3.02 -9 2 C-2.25 0 -2.25 0 0 0 Z " fill="#E8E4EF" transform="translate(268,406)"/>
<path d="M0 0 C3.04515693 1.52257847 4.70158696 2.37176201 6.1875 5.5 C6.455625 6.325 6.72375 7.15 7 8 C7.99 9.485 7.99 9.485 9 11 C4.70073737 9.40768051 2.64994267 6.60686641 0 3 C0 2.01 0 1.02 0 0 Z " fill="#BAB7CD" transform="translate(182,409)"/>
<path d="M0 0 C2 2 2 2 2.25 5.5 C2 9 2 9 0 11 C-1.16461426 7.50615721 -1.13568319 4.66344611 -1 1 C-0.67 0.67 -0.34 0.34 0 0 Z " fill="#EEEDF1" transform="translate(158,360)"/>
<path d="M0 0 C0 1.32 0 2.64 0 4 C-6.625 7 -6.625 7 -10 7 C-8.71372289 5.82739389 -7.42080217 4.6620717 -6.125 3.5 C-5.04605469 2.52546875 -5.04605469 2.52546875 -3.9453125 1.53125 C-2 0 -2 0 0 0 Z " fill="#8E869C" transform="translate(194,265)"/>
<path d="M0 0 C0.515625 0.309375 1.03125 0.61875 1.5625 0.9375 C4.66665423 2.29059287 7.65115007 2.61359424 11 3 C10.67 4.32 10.34 5.64 10 7 C5.56541027 5.6062718 3.12621626 3.39417765 0 0 Z " fill="#8683A6" transform="translate(106,200)"/>
<path d="M0 0 C1.0169313 2.65498232 1.13022151 3.69155375 0.00390625 6.359375 C-0.47175781 7.14828125 -0.94742187 7.9371875 -1.4375 8.75 C-2.14712891 9.94882812 -2.14712891 9.94882812 -2.87109375 11.171875 C-3.24363281 11.77515625 -3.61617188 12.3784375 -4 13 C-4.33 12.34 -4.66 11.68 -5 11 C-4.33333333 9.66666667 -3.66666667 8.33333333 -3 7 C-2.835 5.948125 -2.67 4.89625 -2.5 3.8125 C-2.335 2.884375 -2.17 1.95625 -2 1 C-1.34 0.67 -0.68 0.34 0 0 Z " fill="#7B778F" transform="translate(341,377)"/>
<path d="M0 0 C2.22825644 2.22825644 2.69239369 3.65761628 3.625 6.625 C4.01558594 7.85089844 4.01558594 7.85089844 4.4140625 9.1015625 C4.60742188 9.72804688 4.80078125 10.35453125 5 11 C3.68 11.33 2.36 11.66 1 12 C1.020625 11.13375 1.04125 10.2675 1.0625 9.375 C1.00261044 6.14096352 0.60419067 3.17200103 0 0 Z " fill="#908AA1" transform="translate(191,366)"/>
<path d="M0 0 C0 0.66 0 1.32 0 2 C-6.45 6.09326923 -6.45 6.09326923 -9.234375 5.62109375 C-9.81703125 5.41613281 -10.3996875 5.21117187 -11 5 C-9.54462432 4.16151196 -8.08559627 3.32936066 -6.625 2.5 C-5.81289063 2.0359375 -5.00078125 1.571875 -4.1640625 1.09375 C-2 0 -2 0 0 0 Z " fill="#7A728B" transform="translate(274,231)"/>
<path d="M0 0 C0 1.32 0 2.64 0 4 C-3.31114834 5.12880057 -6.58978257 6.21302675 -10 7 C-3.24137931 0 -3.24137931 0 0 0 Z " fill="#7B7197" transform="translate(293,392)"/>
<path d="M0 0 C2.64 0 5.28 0 8 0 C8.66 1.32 9.32 2.64 10 4 C8.51882199 3.71872579 7.04006751 3.42466268 5.5625 3.125 C4.73878906 2.96257812 3.91507812 2.80015625 3.06640625 2.6328125 C2.38449219 2.42398437 1.70257813 2.21515625 1 2 C0.67 1.34 0.34 0.68 0 0 Z " fill="#9592B0" transform="translate(264,280)"/>
<path d="M0 0 C-3.85477249 2.56984833 -7.52040582 3.85814266 -12 5 C-5.5 -1.96428571 -5.5 -1.96428571 0 0 Z " fill="#78748B" transform="translate(118,88)"/>
<path d="M0 0 C0 4.38968456 -2.12805101 5.76905739 -5 9 C-5.66 8.67 -6.32 8.34 -7 8 C-7 7.01 -7 6.02 -7 5 C-6.01 5 -5.02 5 -4 5 C-4 4.01 -4 3.02 -4 2 C-2.68 1.34 -1.36 0.68 0 0 Z " fill="#8A7E97" transform="translate(326,404)"/>
<path d="M0 0 C0.33 0 0.66 0 1 0 C2.42857143 8.42857143 2.42857143 8.42857143 0 13 C-0.66 13 -1.32 13 -2 13 C-1.34 8.71 -0.68 4.42 0 0 Z " fill="#85799F" transform="translate(314,350)"/>
<path d="M0 0 C0.99 0 1.98 0 3 0 C2.8125 1.875 2.8125 1.875 2 4 C-0.5625 5.25 -0.5625 5.25 -3 6 C-2.42655063 3.13275314 -2.1385485 2.1385485 0 0 Z " fill="#C2BECD" transform="translate(308,246)"/>
<path d="M0 0 C0.33 0.99 0.66 1.98 1 3 C-1.3125 4.5625 -1.3125 4.5625 -4 6 C-4.99 5.67 -5.98 5.34 -7 5 C-4.87219421 2.65941363 -2.88437779 1.29299694 0 0 Z " fill="#ECE9F2" transform="translate(382,205)"/>
<path d="M0 0 C0.66 0.66 1.32 1.32 2 2 C1.68134222 5.29279709 0.45484649 6.86535088 -2 9 C-2 7.02 -2 5.04 -2 3 C-1.34 3 -0.68 3 0 3 C0 2.01 0 1.02 0 0 Z " fill="#A6A1B1" transform="translate(334,388)"/>
<path d="M0 0 C4.55384615 -0.36923077 4.55384615 -0.36923077 6.8125 1.5 C7.204375 1.995 7.59625 2.49 8 3 C7.67 3.66 7.34 4.32 7 5 C2.25 3.125 2.25 3.125 0 2 C0 1.34 0 0.68 0 0 Z " fill="#9996AE" transform="translate(177,240)"/>
<path d="M0 0 C1.7074998 1.28062485 3.37373596 2.61767557 5 4 C5 4.66 5 5.32 5 6 C4.34 6 3.68 6 3 6 C2.67 6.66 2.34 7.32 2 8 C2 7.01 2 6.02 2 5 C1.34 5 0.68 5 0 5 C0 3.35 0 1.7 0 0 Z " fill="#BEB5CA" transform="translate(401,98)"/>
<path d="M0 0 C1.65 1.65 3.3 3.3 5 5 C2 6 2 6 0.17578125 5.22265625 C-1.54947917 4.1484375 -3.27473958 3.07421875 -5 2 C-4.360625 1.855625 -3.72125 1.71125 -3.0625 1.5625 C-1.02454854 1.18992819 -1.02454854 1.18992819 0 0 Z " fill="#858497" transform="translate(208,427)"/>
<path d="M0 0 C0.99386719 0.10183594 1.98773438 0.20367187 3.01171875 0.30859375 C3.77097656 0.39238281 4.53023437 0.47617187 5.3125 0.5625 C5.3125 0.8925 5.3125 1.2225 5.3125 1.5625 C3.54336176 1.78476864 1.77205629 1.98983873 0 2.1875 C-0.98613281 2.30351562 -1.97226563 2.41953125 -2.98828125 2.5390625 C-5.6875 2.5625 -5.6875 2.5625 -8.6875 0.5625 C-5.3763987 -0.54120043 -3.44001051 -0.36423641 0 0 Z " fill="#F2ECF3" transform="translate(248.6875,408.4375)"/>
<path d="M0 0 C0.6875 1.625 0.6875 1.625 1 4 C-0.4375 7.25 -0.4375 7.25 -2 10 C-2.66 9.01 -3.32 8.02 -4 7 C-1.125 1.125 -1.125 1.125 0 0 Z " fill="#ECEAF2" transform="translate(338,380)"/>
<path d="M0 0 C0.66 0.33 1.32 0.66 2 1 C1.38722388 3.96175123 0.74627478 5.38058783 -1 8 C-1.66 8 -2.32 8 -3 8 C-3 7.01 -3 6.02 -3 5 C-2.34 5 -1.68 5 -1 5 C-0.67 3.35 -0.34 1.7 0 0 Z " fill="#ECEAF5" transform="translate(315,358)"/>
<path d="M0 0 C3.37503669 1.1858237 5.64722731 2.27573689 8 5 C5.69 4.67 3.38 4.34 1 4 C0.67 2.68 0.34 1.36 0 0 Z " fill="#978FAF" transform="translate(297,258)"/>
<path d="M0 0 C1.17219543 0.78345715 2.33763668 1.57702836 3.5 2.375 C4.47453125 3.03628906 4.47453125 3.03628906 5.46875 3.7109375 C5.9740625 4.13632813 6.479375 4.56171875 7 5 C7 5.66 7 6.32 7 7 C5.02 6.34 3.04 5.68 1 5 C1 4.34 1 3.68 1 3 C0.34 2.67 -0.32 2.34 -1 2 C-0.67 1.34 -0.34 0.68 0 0 Z " fill="#EBEBF5" transform="translate(171,233)"/>
<path d="M0 0 C3.24271506 0.5590888 4.93057424 1.4132178 7 4 C7 4.66 7 5.32 7 6 C5.68 6 4.36 6 3 6 C2.87625 5.195625 2.7525 4.39125 2.625 3.5625 C2.315625 2.2940625 2.315625 2.2940625 2 1 C1.34 0.67 0.68 0.34 0 0 Z " fill="#BEB8CA" transform="translate(238,237)"/>
<path d="M0 0 C0.99 0.66 1.98 1.32 3 2 C-0.22791555 4.1519437 -1.28400809 4.20086443 -5 4 C-5.33 3.34 -5.66 2.68 -6 2 C-3.1875 0.875 -3.1875 0.875 0 0 Z " fill="#F3F0F8" transform="translate(322,238)"/>
<path d="M0 0 C1.98 0 3.96 0 6 0 C6.33 1.32 6.66 2.64 7 4 C4.97954558 3.39816251 2.97888961 2.72693904 1 2 C0.67 1.34 0.34 0.68 0 0 Z " fill="#988FB2" transform="translate(147,224)"/>
<path d="M0 0 C0.66 0 1.32 0 2 0 C2.33 0.99 2.66 1.98 3 3 C3.66 3.33 4.32 3.66 5 4 C5 4.66 5 5.32 5 6 C2.97954558 5.39816251 0.97888961 4.72693904 -1 4 C-1.33 3.34 -1.66 2.68 -2 2 C-1.34 2 -0.68 2 0 2 C0 1.34 0 0.68 0 0 Z " fill="#8B879F" transform="translate(129,211)"/>
<path d="M0 0 C4.21878192 -0.19622241 7.17010894 0.19769832 11 2 C11 2.33 11 2.66 11 3 C3.49230769 3.36923077 3.49230769 3.36923077 1 1.5 C0.67 1.005 0.34 0.51 0 0 Z " fill="#7C738F" transform="translate(376,85)"/>
<path d="M0 0 C2.5 2.3125 2.5 2.3125 5 5 C5 5.99 5 6.98 5 8 C2.30274481 6.11192137 0.86783571 4.80175356 -1 2 C-0.67 1.34 -0.34 0.68 0 0 Z " fill="#817B91" transform="translate(196,377)"/>
<path d="M0 0 C-0.33 0.66 -0.66 1.32 -1 2 C-3.64860427 2.59355614 -6.29197322 2.74209269 -9 3 C-7.01532024 -0.96935951 -3.9567243 -1.41311582 0 0 Z " fill="#807C9A" transform="translate(283,228)"/>
<path d="M0 0 C0.33 0.66 0.66 1.32 1 2 C2.65 1.67 4.3 1.34 6 1 C3.82575883 3.50037734 2.26954202 4.43628586 -1 5 C-1.33 4.01 -1.66 3.02 -2 2 C-1.34 2 -0.68 2 0 2 C0 1.34 0 0.68 0 0 Z " fill="#9991A8" transform="translate(356,219)"/>
</svg>
